<mxfile host="Electron" agent="Mozilla/5.0 (Windows NT 10.0; Win64; x64) AppleWebKit/537.36 (KHTML, like Gecko) draw.io/24.7.17 Chrome/128.0.6613.36 Electron/32.0.1 Safari/537.36" version="24.7.17">
  <diagram name="Страница — 1" id="ruaczNPJlU9sU-xAmKvG">
    <mxGraphModel dx="941" dy="644" grid="1" gridSize="10" guides="1" tooltips="1" connect="1" arrows="1" fold="1" page="1" pageScale="1" pageWidth="827" pageHeight="1169" math="0" shadow="0">
      <root>
        <mxCell id="0" />
        <mxCell id="1" parent="0" />
        <mxCell id="2FlYlS-IkJK94sjPESsp-9" value="" style="endArrow=none;html=1;rounded=0;entryX=0.5;entryY=1;entryDx=0;entryDy=0;entryPerimeter=0;exitX=0.5;exitY=0;exitDx=0;exitDy=0;exitPerimeter=0;" edge="1" parent="1" source="2FlYlS-IkJK94sjPESsp-16" target="2FlYlS-IkJK94sjPESsp-2">
          <mxGeometry width="50" height="50" relative="1" as="geometry">
            <mxPoint x="390" y="260" as="sourcePoint" />
            <mxPoint x="440" y="210" as="targetPoint" />
          </mxGeometry>
        </mxCell>
        <mxCell id="2FlYlS-IkJK94sjPESsp-1" value="" style="shape=image;verticalLabelPosition=bottom;labelBackgroundColor=default;verticalAlign=top;aspect=fixed;imageAspect=0;image=data:image/png,iVBORw0KGgoAAAANSUhEUgAAApsAAAGXCAYAAAD8uJuCAAAAAXNSR0IArs4c6QAAAARnQU1BAACxjwv8YQUAAAAJcEhZcwAAHYcAAB2HAY/l8WUAAJlaSURBVHhe7N0HfA73HwfwzzPyjOxIJJIgMYLErF1FiqrabVXVVtQoWnvUKGqv2lvtVbVXbfFvi5baMWIkCBHZ41kZz/9+91wWiexx6ff9eh25392z7rnn7nvf+w1J2bJljV5eXvD09MTevXtR5JVoiG59WsDu/i6sOPpIKEyfU5Oe6FnXAJ+Nu/FPhFCYRmV0GPYFqlsLswLNw5PYuPsfRAjLnR9swpoTgcJS4Xm9grFzzQkEvrlO5Q4Y9oUzHmxag1QPMUmzzAlNevZE07JKboEGD09uxO7032SWZf55CSGEEEIKlpT9Y2Zmxs+IQtgDPA7Swta9CioIRbkVcmUTZs6caZrWX0BImY/RpZWrsPRNTqjk7oSEiDDECiVvM4eti63wdwonRxuw0DI1FtgevxWPih93QYYvSQghhBAiUnywKS5huPTXPYTZVkHDRg5CWfpePfDHK5kLynu8Hfhl6NUD+L/Sw9zWBek/yhZ2tgl48dgP6SYP799HQBQXbJawEApS2NrZQhnij9tvZDwfH/oVF55aoW6fgRRwEkIIIaRYEWGwyfE/ht1nXsKp2UCM6t4IaUJOdpu9X1tT1vPV//D3g7ezhpVbtkO9jOJPp0pwd1JCE/Ei3WDSqUl9VJK/wGO/jO5T38fl609hVfdLdEn1IuwWd/vqBlw5wm69v+kV/rf1MG5FOaDul12S31vlDsMwcSIFoIQQQggRL5mNjc3UUqVKoUSJErh7965QXPRpn9/CxTtxKNe4OT5q3hRNmwpTvfKQPDyPE37h/Hqh9//GA3ihZcf2aCas46V8jv/9+QjRXJhauYEXypWrlfL42m4w8z+JbQfvQScstwq9jquPXNBh2CC0rhSH69s348Jr/uk5qdeJ5ktin97EX8GOaN6+HVoKz1u75GucXZv6cZZwq1kTLgkBuH7nBfdaobj/dzDs6jVGoyZ14aK7hyCrmvBySsCL61chPPU7WbrVRE2XBARcv4MXOqGQEEIIIaQQia+BECGEEEIIEQ0+2GQNhNik0WiEYkIIIYQQQnKPr7MZFxdHgSYhhBBCCMlz4mwgRAghhBBCRIEPNt3c3ODt7c0XEEIIIYQQklf4YNPW1hYODu/us5IQQgghhJDsotvohBBCCCEk31CwSQghhBBC8g0Fm4QQQgghJN/wwSbr+ogQQgghhJC8xnfqzhoHOTo6wtfXVygmhBBxk9nXR5f+X6DZex4oZWHEi9PTMHDJDWEpIf9N5Ueuw5JmjtBHvITflf1Yv/oEHumFhYTkEz7YFP4mAkWjpaj+USXAfx9ub1mLd/4Oy01G9Z4fwEKY5UVcwu2lUxEjzL6bHGblv4BtiUBEXPsf4hKE4uJKXhk29ZtA8ng7IoK0QmEW2PeFR98vYS95iEcbh+J18hjzhLxJBqd2U7Dg28ZwVUmEsjg8P/EDes29Ksy3gtvwEXC2foVnG3ojMFAoLhRJ70WY5RWF95XEDFYffIfqFZ/h7s5fEW4QiokoeUzYhjUtXYQ5I+Ij/XB83vf4+SJFnCT/UJ3N3ErQIz42FgY2aQ3cTzd7ZF4/wrN7H1RoMw6VWr6PpFNj8VQFTj3mwfOjL1C52wzY2wrFBUxZ3RtzNv2AIyfm4+zZBTh7ZjaO/vY9Fox8D+5mwkoFybIEqtVyQ61K1txp/R1qt8fmE9z7Ze853WkqlnRLE7EUQSqUqcZ91lql4JhP29q80VjMG9qECzQB/atr+PWn3ujYvFWqQLOoMSBBJxxDYrVIKGKX/4qPtqDX9GH4qPdsdJ34JRfKE0ZmVw1qlxpQWojrNOo3uweat/oKw1cex/3wRMhtKqHtmNno5iqsQEg+4H8lNjY2fMfuJAeezsPdhZ3wL5t++wc5H/RTAon0v3MYL7TP6tIUC2a2Q/2yJWAuNUDDneBjDVKoSpRB7XbdsXrrV/isoLucbdUBsxcNw6IpzVFOKEpXfBy07P3ykxZxfFCSAL0mqUwDnT6RX7XoqoERs7nPuqg7+r/zw+aQzAPf9PVGGYUR+men8FOfUVh97hmihcVF0zk8Xy0cQxauRnCRfbMSSGVy4W9i+8ks1Ow/D+Xq2wklIhIXjJu/zcfQIStxJdQIqW0NdB7VFSWFxYTkNT7YdHV1Rd26dfkCUrASfGfiwf49eHxsDu6f+CPbmVFxuYfgffPw4NxvuLdtAkIjhOIC1LhfA1S2lMD4+irmdp2Mdu1/RPvWP2LYqr/wMDwMjy/8jZMhwspFzc3fMehz7v2y99z+MO7wVzbB+N/IpLJ5GLc3a5U3iitVvW5oUE7BBebBuLh+Dv6iO4O5ZjjdF7sXb8H5zeOxffoO7vKGFBcJQfsxa9s1RHChgI1nc3xZXlhASB7jg00zs8K4d0hMdNDd3oDgK/+B+pocY9SfCPvf+uzV18xDTnaWYLmZoNt/4HRIUhZQB989+zCg0yx8u/IxYoVSIjYyVPioEkpJuADp+WXs+Z9QTHJJi5DDU3BhM9XXLI4iTuzHbVYHXumKqh9SbpPkD76BUM2aNVGxYkXs3btXKC7ihEY5yoCDuHvREqXbNIGttQKSRAN0r+7i5bl5ePUwVFgZsGi3DdVrO0BzfRZuHroglKY0BDJ7o0FPSgOho3gS5IWytd2gUkhhjItBrP//8PTYSkRFptNdVFJjocwaCKXXqAhhCNzRDc8eCrNvkleGXcvBcKnkDgtrFaTcCZW9H82LGwg8sQBhOQreqsCpz1yUK6vgts083Dp0Lm1mtfQYePVuAWsE4dm2PggMEMphB8smY1GmTlVYs+2ORCREv0TItZ14/r/TbwTN5VCyx0JUKG8uzJvEZdj4Sg4zz+Fwb9EIdnbm3NVQPAyhvnh29gFs23+R6wZCn86fimF1LJHw7ALG9D+EG1no9YvV8Zw2qjFquNpCJZPw2/314xvYNfcQDvin+rCd+uDwkGrJ3+uL0wsw6M+6mD+sESqV4LZTggYvb/lg8eQz+Ce2PhYd/hK10u4Eb2HP0WNWkDCXWtLjX+L0oIWY9UAoTo3V8ZztjTIhFzFjVyK69K6Hiux9GOMQE3QHv03diS1+b1zhWJZD75HN0bxGGTjaWEDJfd4kCWE3sHrQVuxNnfnl1v9mcge0qloKduZm/HNrw4Nw68Rh/LQuJXDvtGgahmT6Yf/AoB4HkPqjWNZtgpG96qKGuwNsLJRIeTsJCLvyGwaN/Qcpb8cFA1avx1eV5Nx2m8Jtt0tCeXpSGgg9P/wnlI1aw76Emtvf4hAXGYhXPvMReOPRG3caFFDWnQD392vBxpZbV2JEgiYEEXf24emp/dDHC6sly+76TD40XCozCd1W9kdFYfPrud/e1gn/oOqMH1CvvBX3i0vgjiNXcX5mT1y5J/wia2/C4AUfvnFbNRq3FlTH/mPCbBqsEdE4NOnaDhXdS8DaXGHKZDDGBIT+NRErJu8SChhu/Q9/QsuvW6NiKWuozNjvSoPwwBu4NK9PyvvINht0Gj8bLcoKsxlJeIU/V07D9rvCfFbVW4R6rb0yqbcaAP+FAxHE7/zdUWFCT5RMyuc8P4orO3zh2GUAXMvacPtzAgwvryHg8DSEBpkORvZdD8HDQ4GI/3XHvXOpzmOtN6NaPSdI2HP8sow7MqaQlPwczq06olRpBygU3LtL0EMX+ghBp6cj6GFmt5Ds0fnnDRhc0xLhlxah0w/pfsGE5Iq4aja/QV7iPZRp1Ry26njExWq4Q6YCKueacP90Ghyd8yBba1EDrrXdoUjUwsA9f6LMEpYereH59SyUyE3jltSNitj7zqyanfnHKN1vPirVqwIrGwWMrDGBRgej3BIWbh/Ao8f8HH7eewh/EMCdXiVQu3nD8o0jqLmXJ18W//IqwlIFmtbtFsOz2XuwsTYzvRdtPKRWrnBqOhyV27bhM4cpEpBo0AiflZt08e+sKiDznIDKn33EnfjNueBMx31OPSS21eHWvB737ebe8fMPEMbFV/IyTTB7Sz+Mbu/wzkY5yvc7YM08VsfTDiqwOp7cZ5FawLHyBxi2uDd6lk31EzIIdUC1cfxntCz5PqYMbYJKVtzJPFaPBKk5nGt9gpFjPLjniocuqa6lsD7bL/jHp5q0ujyog2ldFt2610dF/n1oue/bDJbOtdB7dld0SF3dTOmFKau/Qa8PPVGmhCXk8do070VniEds6syWsiLGLe+Pr+qVARenQcfW04Gv/1q/a3+sGFee+5wmBl3Sc6VX11SYuO2QOvRVNu+E1TM64MNqrihhKUe8NvX6ehjiuUlY18Qc9hbsFQ0I9b9mKsoUF/TU+Rgl7WSI596PwSCBma07SndYhErNq6dqsKeA+YdLUK31+9xFkBoSLjDi9011SdjXGwCvzr2hTHM0ze76+ShBy21rDbfNdIjntr3CtjyqjR6HhuVUiNNwxzajDOau9dHyh59RRngIt7G575M9hk3cOpnshqpPtqDXtP6o61WKOx7L+OOx6bHcxB2rDG/05az6aB26TfgK1crYQMldcrL19FCjhPv7aL3wdzStJqyYbUZuX0u9n2Q0cZ8p3WA/E+yYxD2eTXFsY3IS9cKxLXnSItG0iGPgLjBYmc5UZuUEx3YDUaaMGoncdxKfKIPCuS4qtv8eqpzuD3a9UL7nNyhb3gkKGXdxzt5DghwqRy+4f7UKblXTXui/LRTXg1lqRAqlBfs+CMl7os5sWnCnpthb63Hv0H4+myaxbofS3QfCtaQc2tsrcHvfEf7kldPMpplRg7ALP+GhzzWwY62kRHeU690DjlaJiP57Gu78/rfpAUmymtlM432UGfojXEtklNm0glW7FfCs7QiJ5gmeHp6BoPuBfHAiLdEOzp/1gb3WB48PLkNMTu7/2nRDhf69UNI8FIG7++DZg6STwntwGTADZUslcFfYP3BX2LdNxU7fonKfDrBTahF+YTr8zrNto4K6yXx4fujBBeav8GxnfwQ+Tj9l+O5upVKyoHHPT+H+7oWmzySvAcevfkS58haQ6HLb9ZEc1Qf2wdROlWEnZ6GEEXGRAbi87ziW7niEkDSJPiv0XjYGvbiDdcKLS5g7fB/OhCRCWaEJ5nABaE0uQIn4dyf6jb6KcOERPCHDqYwKR3DAH5g22gd+cXI0nzoS45s6Qvb8Agb1OgQ/YfXkjGg6mb2MZSOzaWZE1O0jGDOKvQ8WQHfEuqlNUNosCjdWLcKIPcKe2rob9o6qDbvEl/CZuxYzzkSnCf7eVOX7Yfi5oxsUUXexbcwmbOSzpHJU6N0T83pUhZ3GF+u/+QU7gk3rm2ThfQtaz5qIUQ3tkJhq279bRUzYuhYtXTXc52rHfS6hOF0p3Q0lvPof7u+Yg6ho9v4dYdNuHirVLgVZ1HXcWzseEaxurHknlBvYH05cwB797zLcP3aCCxQUULz3I6q0qQNzWRReHRqCJ9eFHTO76yfLxy6ZkjKc8giEvvbHxcld8G+AHqrWu9F/dAOU0D/BuZHN8L97wvrJmqH1ro2o55hRZtMZNRadwKe1rKEPOIZdQ79FwLuORfIP0fKXDXi/NBB2dTm2T/wZ/O15ZUM0+nk9WlSxQNQ/P2H5uF/euf8VtowykOkTMpyIgCbEH89+/QHhkYmQeE5D9U4NuMukJ3iyaDBecfta9jKbKth13o5KntzZ8Nnv8N25BBodOztYw6rtUnjWKcWv/+/GZcJFXvqSukOKe/47fug1D0W13wYiXvy1VEREBEJCimqriHeIe4HXf5sCTcYYdQRB/zzgAhgJVC7vcdfJuZP4+jIChUCTMYZtx4vrT7kDoIy7aqxVMFeA0pqwdSvJfVFccHdpEV4KgSaTGHYEgRu+wM0dOQw0mcjTCHsWzSJp2FVpnJzJkbh/DLuSMkDzGK+vCYEmR+nhBUvugxvDb+DF/5K2jQ7aP7fhVTD3RcgcYFvpPb4026zqwsqRXYVHIfSfdSmfKf4mXv/xN2Ly5MwTj1tr1qPb4C04eCMIGu45zWzc0fjrQdi4uj28HVKlF5TV8F45c26bxODusZPJwY7+0f+w5sJzPlC2LeeJ9zPobUhuHoNrq/7HB3jsdc/eCuYfI5FKU2XMCoAxCH+vTXof3Pu/eAO3+Vt2UkjN0kmnyCzgVK08Kju+62ahI1pUK8X9BrS4f3ifEGgy8Xi0+TT+CuSiBytHeHrk/g6DzNKeO8k651NXSZF4/dcqIdBkghF59ihC2b5n7QwLIfMrKV8Htlbct6bxQ9AfLHBkpQYYrq3Hy6esCos1bCq+n3x7NbvrFyilClF/TeIDTUZ3+xbCWEAt4faHXDY2l1uXRem6NWDxrtsQlTvDrZSMO17fwR+zhUCT0V/CX2svIdgogYVrQ3CxaPFjZgHd3cV8oMkY7z5ALNv12DEhRweFT2BTljtGJQbixfHlQqDJRCH66O8I4b5iib07rChdSQoZf6YJCAiAj48PXyAqsYGIeePKPy40gr/ik6gdobY3leVUgiZcuHpMkajXJwefBcKuElTm7CikhTYoOReWh4IRdfseNNwBPuVWuhzmVarAgvvb8OIqolNV+ZHb2vK3neMjX8CQOvhLDIYhlp28ZJApkm6eZpPCCjL2+rpgxAZFmcoExujX7C51ntE/uoUlIxag3Wcrsfm8H0K457ao4I2x05siqbtjVHWAHR/gROPVlbTv597zaNO+IVfANqOPGx6ES/6p9pa9m9C++Wg0z3L2Mo/EhMM/OAt77fG/cN4vkvtc1qjSsSeW75qDE0cnYuvKHhjXrQIc0kRGznAtwTaOGlW6T3yjv8/v0bYsizZUsHbL+SXf8d+uwC+S28rWHug4ZgR2/c76Qx2JlXM7oFsDbl8R1kuP1CyrZ1cd4sLChL8FmigkpN63OUr7EqbXiw2GJk0VuCfQx5iieKmZtemAysnu+gUqLgKvrqdcQOLZDOxo747prb3hk6o4617i3p7z8I9J5PuebPHjIYw65ofRe/5Ct9nLULNm2qsx88qusOSCWol1DXT4zR9TzqaaFn0EJ+5wJ7cogcxu/opTCGIepk7sbMej2Z/g0vSkOp7Z5OgGFRu4QOqKsgOOoOGU31NNfeDIfgZqS7BqnFkRF/4MOdoFCMlEoRzrxExuaWk6iSS+u+6hmCQ8+hOREUZIbKvA3pM7MUjrwNbNkds5ohB26+Ab9eKKmZgn2Dx9DXquvIEILh5TV6yOL/Oq/8c4PV7rhL9FwR/LBv+Ez4dtx28XbuPxqxgkKmzhWqUWWvUfhC0bPkXj5DY+Bhj4+3I6hDx5iPv3M5ju5aLXgX9PYPBnUzHs5xO4cN0fr7hgRmHngir1mqL/rHHYMKHSG43sNAhllUahgL17DrPrjK0z+A46jIkwFpcfeWqJei7gFf7OI4aL32HL5/WxdumvuHb7OUJijVDZu6Big/bouPASeg1vlnxxEB+t52+PJ2pf4+l9PzxKZ3p472baqilZxhoIrcTKlZlMy35Ed0/hIQXKgMToN1MYuaAV6oLGRyLy8X2EPEpnevAAGuGuRvrsUcvRkvvfiMQ43RtVmwjJG3ywybo+MjcX4XWkBXeF/MaoB2b2tqYGKvpQaDOpRiNVKrMXbUsbwK6cE/cYAzQvr2YchCntc51VTRb+ADoNO5pYwrJcvfy5/ao/jRC/ICRKbGBTqSnkZT+ErYMMxkg/hPulzejFR0SAHbfkNi5pr5aljlBYsMvoBCQYchhhJSaYTu5KO6hMKcVkEquSUORFC6EM6J9Hgr+TKlfAPOml74QgnD9IW8GpbtrsTJXSrBUvJ96AiLwKKM2UKJnDpHBeivG9hpVTN6F/12lo3XIyes+/iMA4CVRla6BTG3ZSYkLxmj9pyhHrexBDB6/G4LembVj5b0ZnOTOok5vovosOvodPYerI5ejacSJadpyF+edfIE6iQtkGH6BNmg74w3A7mO2vctiXq4sKpsJsU1StAxuWkI14imghCaUPDTPVH7RwhHmaxoHloLQ0fY7EuKjkux7ZXf9tFlA6Owt/i0R8CIIOjMXh7xpjZcdKmPX5ZzhwMRjxUnO4NR2EisJqhhch0HK7jhSReDC/JbYPfnvaMWE60uuDIXP53EAoHTKFU4FUi5GldwCMfgWDnjtoyuMRe3kcHm7//u1p10JEvStjoKqC6i7s+GbAqyc3TGWE5DE+1vLw8EDr1q35AlExc0HJ+p/BTAh6WAOhUvUq8XUp9cH3U67QuEs/FsOoyn4EGyEVwtYtWcXlnbfiUpNYN0Op7qNR2okLwmL8EHw1nR9lzCvoWeChcoSlm2vKAUhuC1lWzqvpSbyEsEdcIAgFbOoNh1vDWqZbzXkqHpp79xCbwAUUZRrBoRq7hW6E9slpRL0RSOn9fBHD6gHZ1YRLk/eEYF0F9Qc94MTq+CWEIOJBVlsCvyH8Mndy5ysZwbHxd7BMSlvJa6Bk4/pvtZbPvjLo91M3jPyi7Bv1/1Tw/qQCHFn0GB0O/6TbnvrbuPZEw+07lvBs8zFaCPU5WQOhgU1L8/tZxJO7uJg2Hs++UO7kxyITh8ro0tXpna3jC54OwQ+iTO+P+7ZT6ngGY/cfTxBrlMOtZW8sGOoF1yy98WhE8U9mj+pdGiHbVTpjovAgRGsK5CQSpK1yqsOtvwK4kJP7jsrURvtsZ67MoX5/Hqo0rch9B3GI8P0NMcJJ2vj4KiKiuaOIuQdKNW4FOf+6rMFPfziXZZFpFCIfXjS9L05210/xEno+MrCAJfcZTI9jzCFT5+PVVj5IjLiHsHAd/xklEplwrODcWY27/tzvXF0BTWfsRYP6zlk+DmcuCocXj8GYMZlM4+dhTy5rJcVpYvnzimXlnrC1SbMj5opRaMpuVb4X1MKGkZTsi5IVbNMJag8g9EEY9z7s4dx+IZy93Phu8bLDomErVGIXbYYXuH3msamQkDwm7tbokY8QFl8edtZaxHHHZ5maOyCz33z8SzzbOQCBT0xZFUnZMfDs0QLWXDBhjNchTp/IrStH9L1HUHh5wpz1z/n6HgIPjcXrl9wpQWgxLefX5Q6VUjOYcQd69hs26p/j+cFxCLyXXto0VZ+SxnjEa1n9Thnkag1e7kxqaV4XLv0noJQN/wCORHjfiUjQcidRIdWh810A3+MXTTPmzeHSdRjKuKpN7yHpfXEkZtyJ68WBDPqszI6qKNV3NtxdZUhM5IIKLphIv1W5qeujyrWduE9mRKJOg3hj0vaJR8z1lbh36FhyXVdFvXmo3LRCSgAlU8JMxX0RqT4D9E/wdOdohHCbVOY5GZ6ffcDX6Ur6nBKlOSTh/tBYlIO1NDet0VP3bcm63jF1BSNVcEGGGduyBjw/vQmDZz1I7h+S7/poShOUVXLLWddEugTIVGq+/0ljlC82fbcJW5+avrT2s8ZjQHXu+5AqYK42g4Rfn1W3iIXvppXvGN3HGUPXDcFnFVTcNjQiTqsxdTXDPY869CIGJ7Vcr/EJVk99XwjqpFCYq2EmSfkcePN1klqj695sFe6OsZsH4pMyetxavwjf7xCiZaFVvEqvgU7o1iX5s3B/sgYd6wdsxM7k57FDt0VD8HUt7mKKzSZ/XtM21V3fhq/H3eBO/2lVGToEiz4rB1bVzBinhcb0YaFQh+Hs4J8xVwgCTH1zqlJ9PtPzmr4rI6Ju7MOAERe5PTUVVT1MWDsDLUvLEHVrK4Z8vxnpN+hOavWdyP1Otdw+zz23yhxyviPPOMTe2YUH+7cjZfRPU1dGnk3Kcduce3WDBnHxUu63zfq8NXIXYbvgu3tzLtZPofJejWre7pBznzGB+32x+qPsven+HY/bx7OfebLuth89ulYG60VUaa7inpftM3r+Nxp7bTpWT0nd/yXTGB/9shY1kzvZ5IJ6tRoKKds3U7pBSnmsB+qvOIhPqiiTn5eRKdR8/5nstxZ6eQ42TliXPJyvtOKP6LKwDzxYIyr+c2rB/bTYEiiVsbgxqw6OnmfzRZjzcFTp8wls2e+RO4fECV2YSZRqxPzZA/d9uMue2rNQs1ll7vfBnQe4bS/lfq/x3P7M4kn9fS7oPnLqrey2pOZs1OrwHtghh/U9Gmfg9htzbhvefYkSXhUhY7+zV3/j2daZCGcHfXlTuPYfgzLCFbTpMfw7gZQ7z0We7QW/vzLoa9PiA0xYNZn7vZhBc2crvh62CTnu6IOQd8i7y7HCYHyNV6dOISxaCjMLLmDjggXdyxt48uvo5ECTMT79GQ+P/okIljGQq2CmTETMjS14co1dEXK4E6rKqTRUSZm0OC7I4Y6oEm5dhYUFFEouNop8iZArW3Bz2eAMAk3mCUKObUXg80gkGOXcAYJ7rEqKhBgdJBalhHXMuGCFK2fPy09CgMx9FTJ1Srk89ahOmrN4sfFb+J6/ivDQGCRKhffF1pMaYFSWMN3SzZU7iHgUiHiWgeBOuImhvohIt/uicEQdGY67564hMioOEvZZuANaYnQgXl1YjPtHUwJNnlnKe+UnLtBkp5fkbcsm7iAsEfbEhLuz8eDoBYSFaWCUceuYK2GMuIWAA9sRnevb1X44cupfPHoVBW0cO/FawIJ7fRV0iAp+iAsb1qQJNBn9xUMYOPYI/n4azq3FBRDc96VIjEXw/T+xbPjm5ECTUXBBKHs+CyE4Y4G1OZvnHqN6Z6eKL7F8xAbs+ucZwjTxXEBiel+sy0i9RIkySXeu5WZQ88/HJhZoskJZ8ufI/HXerYyNDHruhCnlgnvT83ET9x50sWEI+PccFg/fkirQZMKxY+QCTNh8CXdfRnMXO2z7mB7HtmmimVW6jTzuLd+AKbuu4yn3HcfLhW1m+rBQl0mqR1ACNnJDmu8p6Xljw57h3yM7MHzsG4Emo/sHSzZcRrBRCutq3bF83SQuiGc56DcZuACHnfRZAMj2Q+6CJi4asU//wePd3+L23tSBJmOA5vz3XLB3EeHhWhjNuP2A7Zva1wj9Zy1897wZOGZ3/RS6Pxbh8c3n0HM/P9OxgruAMUQjQZqzDKCUC37Yfsu2Md/bF/cbV/LzbH9Jb9twF4/mpuWmiQWarJwFnSnlKY+1glIaz12gcN9V8mPMwfrPjAkNwM29E7Djx5RAk0l8OA27BwzD738+Qkg0O44kPY7bRnGJkNuKYLzxl4vht3M/gl6GIy6R22bc/smOZ3Ijd7xXugvHgKTjnGkgDvZ75c8LXJlZBvWCjDem4f7Z24jWxkPC7TdmCi3C/1oK/6dCmp0dV1zKQpl00I+/gMD1I+H7x3VERnD7mpzb1/jXNIc0jtu2SnvTe0lDBuvKnTB5+Xh8VFoBo/4ZfDZRoEnyj7gzm9nqz5IQ8t9ghgq952Fej5qw46MzlpGLhP/JaRi4hOqkkf+28iPXYUmLsil3LPSB+GPFePx4JC87dSUkrZynQQghpEiKw6PNI/BV/yU4dTsQYVpTtljNqm8Q8h8nU6phoZLCEBOGp1cPYt7Q/hRoknzHZza9vLzg6elJmU1CCCGEEJKn+Mymn58fjh8/zhcQQgghhBCSV/jMpvA3IYQQQggheYrqbBJCCCGEkHzDB5tubm7w9vbmCwghhBBCCMkrfLDJ+q9zcEgz7hshhBBCCCG5xgebbGx0QgghhBBC8hrV2SSEEEIIIfmmWASbcpem+GbmOvx64DAOHz6MPcv6o4KwjBBCCCGEFB4+2IyLS28MbJGw/giTFkxE1/crwMHaNH6yuVlORhAmhBBCCCF5jQ82g4ODcffuXb5AbKy9W6FGKTMgPhiXV/RCq+bN0XbQGjwSlhNCCCGEkMLDB5shISHw9fXlC0Qr2h/nDz2HiHO0hBBCCCHFjujrbEb9ewuBbHB067KoX9dURgghhBBCigY+2LSxseE7dhelwDP4J4CLNmUl4fWxN6gTJ0IIIYSQooMPNl1dXVG3rljTgoG49iQUBshg7VoV5YRSQgghhBBS+PhgU8ydusvtGqCFZ0kouL8T9NFgd9QJIYQQQkjRINo6m14D5mL99v04smc2OpRXIObZRexYsgsvhOWEEEIIIaTwiTbYLFGmHMo720ARHwr/ezdx8cRenAygtuiEEEIIIUWJaIPNPyZ/ieZtumPClmvQO1VHy/5zsGLKJ7ARlhNCCCGEkMLHB5uxsbHQaDR8gajoXuLyjllYeuEZ9JDD2qk8nIRFhBBCCCGk8PHB5sOHD3H8+HG+QHycUKtCSShhhD7yBV4JpYQQQgghpPCJ9jZ6MqfmaOhuBRgj8ejPc4gUigkhhBBCSOETfbApr1odrlysiegnuHiOQk1CCCGEkKKEDza9vLzQqVMnvkBs7J0sTKMGydSwpdZBhBBCCCFFCh9sirlT91cX/oF/lBGwqIyvlu/A+lVrsXJaZ7gIywkhhBBCSOERf53NwF2Yu+4c/KMTILMshfKVK6K8uzu1SieEEEIIKQIkZcuWNdasWRMVK1bE3r17hWIxksOunCfcbOIRfP8uXmiFYkIIIYQQUmjEn9lMFo/wJ7dw/ToFmoQQQgghRQUfbMbF0TCPhBBCCCEk7/G30c3NzcGmkJAQoZgQQgghhJDc4zObbKhKCjQJIYQQQkheK0Z1NgkhhBBCSFHDB5suLi6oW7cuX0AIIYQQQkhe4YNNW1tbuLm58QWEEEIIIYTkFT7YFPMIQoQQQgghpOgSfZ1NqgJQ2GQo2bA7xs9fh10HDuPwvtUYVk1YRAghxU5XLNjHHev278Qviyahy3s2kAhLCCHpE32wWbJkSdFXAbAp/z3mDT6Ew1N9cHI6m87iYI9BsBKWF1kyF3ScvhmbZ/bDx3UqwNHaAhbmaijflShX1IRd469hba8QCsRECosWE+HdswPUQgnJObNqg/HBwG/gqBIKirBBa87g7NmzaaZ1Q4vvHaFmM/bgDPcZ985uWQRPEiXg1m0eGrSqUEjvTQmVOXess3GCe63mGDh/B7b99BkcKOIkJEP8b5U6dS88bh+swcben6OWsw3MEjSIjY3lJh0iYwNRtL8VSzQdPweDG7tABR2C/t2Nab07oPknvbHgmrDKW+rBpc8MVG7eBZ7dp8LWQijONQXkDtWgdvGCQiUTyvKe/Iv9GDTxG3h//TN6TPhQKC3qZCjV/guMWT8Vy/bPw6r9s/Dzpu/Q93NXbqsVolpL0WvBOLTo8gO6zRkNa6G4qNLr2O/SNOnihULRUcPZsxZq1fKCi7lQJEIVp51Cj/5fotWYPWjXykYoLUibMPST5vjs6znY+e9LGCTcdv1gAOaNqAWqkEZI+vhgMyIiAgEBAXwBKUit0a9BJVhKEhF+eyX6zGiNz+a24ade+w9zIVzRJfP8Bn2alIbCqEfAiWnoM3oNfJ7FCEszJ5HmZU6iMhw6zELN/tNRplpJoSw/SSDNv5g2D8lQtnd/jO5bH+Ud1FzExF3M6AGlbWnU6/kNhvUpza1R2Lhtmaf7Qv7Y+H0HtG/fnp8OPTEKpWLTEEOmL8SiRT9h2AdFf5tnittvMv0UEhUcypZH+XKusM3K1ZXUGs7lufXdHZFZPB4ZcBLrRvfDxFNPEQcl3Ft9h2FecmEpISQ1/rf64sULXLlyhS8gBahaC1Sx4b6CuEc4c+xXBInmHKZGo68awI07eMcH/YF18y7DICx5t3/w8rdF8Du/G75bpyAiVigWifi9vbFz+Xb4bByOLTPOC6VFWMl6aNe8PCwk8Qi+vAfTekzF6K9mYtXJp9BKzFGx5Sdo4SKsW9Cuj8HeuatxbvdMbBs7D1FCcb6Q2aPqRz0xfHxvLtwiYvdwdj/s2/EbTszthEMnIoXSDKhqodPg0Rg9sj/aVhDK3sWqJXqP5tYf3gXvC0XvpsPVOT/jXGACYOaOBl0bcmEnIeRNor+8Zbe12AhIomRlBUtWz+eVHw7GiihbIquMZh6OkECPp5f24C+hOCuMYecQemEjokKzFp4WKcYIvNg3ET5bD0ErFBVldo094W4jgTHcF78vv4IQ/vZvLG6tPY1bIdz+ZlEGNVo68esWPD0izs3B/9asQ3A+pfBl9lXxUc/hmDZ3KoZ8/j4qOZiD8k7FgO467q4fjcsnHiFRKCpcN7Dpsj/Yz6tk+Q/hQTsZIW+hsdEL0/trcKx1FcifHULndQvxrmt0VdmhmN72Y3g62UDJXSIkxkXj9ZM/sPngPJyOTnXITXpOYdbfpyPGvPgO89o2RTlrMyAhFs/v/Ir5+zbhbk6P1GUHYc3qL+Ehe44Tk3ph7j9Cebqqo1TfmXAvnfYelv7BZtzetfOteqnqZmtQrYkbtFfm42lcB7jXqQRzBRcwxccg5t5BPDy4FfqEtOu+81Zw7B08WDcKYTlMncla78HQMfWQpmZYYiiuTq+DoxeE+RzyHrIIXapm1jomCrd2zMCqP7JeRSFJ1bHjMbRRCcTcOYjZE/9EmFDOMtMNp4xE79o2iLq2G9OnXeVC0LRUH07CunHN4Jz4GIfHfIslvnlQg7jKXPRe1AVuaT6yFo93foFt6+4I87klg33VZmjTsglqVigJc37nMMIQEYiHd/7Age0X8JxfL+dYY6EvPSR4tK8Vvln+ru1iC+/hUzGgaSWUtFVxv8lEGDRheH71AOZN3YEHqa8vm83AnkmNYO9/CMNPlsSIbvXgZsX9ihMNiAq8jI0jp+JgaNoLUtt24zGvZ1O4l2TPHQ9dyCOcXHIQDsPHoJH9Y+xr9Q3Y22ONfSY1sn93i+nwy5jdeQJOCceEpMdEXF6IdbFfYGDjMrBRSLm3E4XAyxsxcupBvPF2BGq0mr4Roxo7wPBgL4YMXoWAPLiOLjvxEnq2KJX2tx51HQd6f4qb7zpwqhti4JReqGn5Cn+unIbtd4XyjNh0wvjZLVDWcBd7hy/DGaE4U/UnYfvM5tzv5QF2f8UdH8OFckIIj89suru7w9vbmy8gRY+q0k9Y16cz34hIadQjNlaDOJkVnCq1xuhv5qODearTSLzW1JBBaMVgYzsUk9o3h5s6DrEaPRJlFihdozfGfOyZ8/p6FvawZAGDIRRPbpiKMhaPRH0sDNx74qekSDETCtdOKMsFmspEDQxa7owpt4RVtW6o0rFDciBtjNMlP298AjujGZGgS/VabNLqYMzNyc6ghZbb3mybx8ZqEZeHqZR4brskNTrJeNJCH5eTD+DIBSGmNvOG6FCEye1Q7fOW+KxHLTjLtQh6FcVXfTCzsuVCorfVblIVpZQSSNXlUOPj9NbIAW7f1CdvSw308XkQhSRJulU+bS6mDvkc71cqCXVCBJ7dPI/dy3/AmB9mYXkeBJpZxwVdM9ZicocacLZVIFHDvksDpOYOKN+kPxavHgy39KK/EtXxXeeGKKM0cOvrEC9VwLpMEwxbPgUNU92HUreagbXDP0ZFFmjG67h19Vz0WRkdhn6F0vztkhQGnXBM4La5gd9/WdCbeh/jJo0u/QaJDh3Rv1kZqNlxhTumSBXWKNNkGJZPaZjBbbGGaOJZkvuNSmFesRba5FGl4ET+Mwj7jsaArB1FCtDfzxHO3pSZGjYW7wzrCflP4jObNWvWRMWKFbF3716hmOSXrl0O4Ut3IVySKWGh4v5O4ALI1E1co69hxdqJOM0XuWBQ3y343N0Mcc9/x49b5uCKzgiV0xDM4wLQKtyBLeTaVPTZfy5tvUkhw2mMDMer57vww6+7EGRUo02nnfiuph0QsB9fblics7pynhOxfUULOMdcw7IOo7BfKM6KpGxkfCaZTZkxCq9PTcLjSw+4EFIB8xbLUfWDspDF3ML9dWMQHi08gJeUPTXg9bGheHQlSCjPY4pe+HTXdNSwzpvMZv5yRNv5Q9DOA3i0fyW2J36KMZ0qcCFQPF6cWYf1ER/z84qgv7B80AHcEx6VzK0b5s/uAnftFewYNwP72W33PFUHTdbtQLMKiXmS2XTuMgmTvV246w0DIp7fw/W/LuDEX76IfFfiMYeylNmsOwU7534IJ2Mo/lk+COMPhHL7Mbd/Vx2GxfM+g4c6HJdnd8aElFSiKbMpSUToP8sxaPwBPnOobjULW8Y25MpDcXF6F0w8z9ZXc++BO454yGB4fhozBs/CHyw1ra6KYYvn4TMPdpHxKDmzmaIZZuyZhEb2EWlfOx3J2dDE1O+fC6BnbcHYhlx56EVM7zIR/Nt5Q4WvF2PmZy6I+WsThs85huzn5DPRcB0GTm8JJ016mU0bdBo/Gy3KCrMZSRAynf5C5jOzRu2ZZjr7YPnvveCliMTVJT0w5qDIKqQTks9EX2fTy8sLnTp1EuaKPoXSAhYWwsQCTYYFnUllbFKroEi6ODbriGqlWYcaEbjx12I+0GR0r1Zgw82X/BW+Q5mP8F4GGQQz8xBcOrpbaHykxbEXr/h6TlKprEh3RGwMvooXf7NAkzFAc/c2olk0LZFCQomDbDNTslwTw1rSp/zspXKz5ExxGgE7MKZbR3Tu91M+BJr5x2iI5C6uniPgyZN8CTSzqnqrynDk9tPoGzvwgxBoMto7y7Dlagg3bwfX2mXf/g0mPoHPDFOgyWhPnML9MDYjhTS5X51O8CrLfvCxuHtkrinQZLR3sGzdZbzKy68r4E/MTH7/Wpw4dR+mtyPNsJufRxuH46sOX6J/fgSamTLCkKqbqpS7EQnQp8nmamFgF/PGeOi1qcv1pqwpV65LLuMmjb6Id0VHSNEm+mBTbENtbt7SAh9P8TZNx+/xlcrB6mwmlbFp4SgcSzqylXWBLf8tReDlo7TNUm5ERJlOAmYq2Gf0TYYGwEeT6uxzcSDasNfIpI5olnCBn1k+ddZoiHyK+IwTLyTLVLBxtMXTTb9i98nr+PfMAWxc/YgPOFmgo4sIQ3GoXhZ8+hCOXX2KKKkDKr/fBr3HzcPCH79Hz3YNULYQeuCv6VSC375W7w3DqVQdwbPpp8YO/DILW4+3g83IENzPNClmCSX/uwvCo/1v3FC+EpynLfvDg+8UQsCYG1E4vHgMxowRpil74MvugiSE4MqGVOXj52GPH1euu4JN01OVz/gDgexp4vxwNKmMTT+sRdZuZETh9VWRNlglJB+JPtgkmYjTICivg7bYUMSwFsQKe5SraSoi2ccaCK1cuTKTiXWcbyk8IjuC4f+aXZxIoDC3hEX8a1xcuQPrll3GU50MJZ1tuTCU1eDQiaJlfWYSQm/iyIY5mDByClYfu4qnUYlQOVXG+216Y9y8hZg2uh8+a1AWBRV3xsaZKrVoXj3E/fv3053ucVNeJiFJIapfGnYs2ZzIMqX0rRLyJj7YpBGEirCnLxDBB4u2cK6Q9lRZ09balBmJ0yG0ILOAr33xmqU7zBxQoW45U1mRIIdMJYKxDwX520AIeOH3CiypY+XuiRqpxz6Vl0c1NzZmjwGhAQGpWqkXAwmhuHlkA+ZMGIkpq4/h6tNIxEvVKFm+Dlp2bos6wmp5wdb5gwyv1h+GxfCBpDzib4wdPBiD05kmbnqaw2AzAYn8770EXD984x3UdczCaEwKqOzeyqmSXChV3w0lWbAZ+gJXxZUKJqRA8EcqX19fahxUVMUdxO3n7GLAFjUbDUddlekkwRoI9avhzLcoD3l2GtfeuJuWr7Q3cMmf3XxVoUyddqhkKi1EgTBoWIUEFWy8usLKMoMKrEXMn+snp9ymy3Cahl8u56yxQfilB3gWZYTEzgufDKklBCFmqND7I9QuxW0j7XPcPlVw7bMLVgJCbx7BhjkTMHLKav4We2QOg/Y3PQ6N4INEuzKNUD3VMDO2dnbJt8VvbbqCAO43qaj8OVbN7ot6JfIyuDuGB8/YD94O7/Ucj8ZJw76yBkLfNIBThi/1AOH8rmSByi2HoYaIh6wsWtzwRc0yfN3n0EfncUVvKiWEpOBbowt/ixJrIOTp6SnOYDmL/WzyXR991RRO7GjGt1xPgFxtbupvM+IKVq4ejUNCvczk1u5vtXSPwrWDfTD9Xt70oK1+fyLWTmsBV2kkbmwaghHbXghL0lI1XoLKDVINiyhXQaGUwRivRZxeSMdq7+HJ1ol8C/MMW6u7fIcqvdrANi79fjMllaeg2heNYMFeKNFg6i6JI1UlIOz4UDz+N5ifzxZFF7T95UdUSW6pKoFCrYaZlHUdo4MpdklExMUx2DDrOL9G0WIarvK7TyvAQmJEvE4LPWvZz+0XEqMGDw+ux+JNz00NIt7Uehb2jmoIO2kAjnb5GgtfC+U5VhMNl23CB+4p46vIlWoouV2Uf1/Cm9A93ILtI+YgwjRbNCW3HGe7mgZabkeQmKlh/uwAWn2zPHmfrTB4DZZ29hBu3bMGJ0LjE/bbjPwTo7pPw7WkOxJJzxmRtr/LjFqQs66PNo9pBAeWLmBdH3EbUKa0gOJFAALLuKGMJL3W6NzjeizFnr7VTEMxCo9j+7WZWourM5Jau6e0Ro+4PBudJ5xK6Tw9w/eZ4rOFBzHsPSvg0b402yPH6ixF70kfwYEd/xiJHCpzBWSJcdByv3PTW4iG35rWOHSk4PP0bv2WY1k3L1gaA3F6+NeYdZuviU8ISSWju0Ci4e/vDx8fH2GueNI9mIxvNu3B9ZeR0EtYy3VzmCVE49WD41iwbkxyoMkkt3Z/q6W7Gip53mVXtBeXYOPfr2GU2qBGz+VY+0NHlE+nsZDEjAsuuddPnrhAky+Xq1PK1KpctzA33p+D+wd+R/CrKMQbzZKfW5ZghNQ8KfWTXUqYmZvz29s0sUCTlUuhSC63gEpVVAeoS8DTzb9gyZZ/8DhEy30c7v2qpIiLeo5/tq7DsowCTcbRGhbss0aG4mGeVOqUw0yVtM1Mk5LfHyXc9UdKmblKXfQPSudmYuGBe3jN9zvJ3je3ryVqEWFUoGqqN/9o1UB0n/YrLj56jViDFCpuPf63qEiEhgv6XXKxz2tPTMKEdT549FqHeO4CzsKC2wcjbmPXrL/xrstJ7bZxGLeBPS4WBil7HHtP5pAauAupUnlzfHCyNNUxDg+5n/H+lR1cIK8S9g9+YoEmK5eaQZ2qXMGuvguSygkfDl2GhV24QFOSiPCre7CEAk1C0sVnNlkfmx4eHjh+vChmZ0iRZVYJfRfMQdfqtqaDvzEO2sgn+H3KICy7za9BRKrR5J2Y1swJkieH0LXfYuQ6sUkKxmcLcXDYe7CKvYHVn47Ar3kS7WVHUibWCL89n2DgquIYfHXFgn3dUdWKu2DiD3xcoHl7O6aO2ohbuU7jElI88ZeC7OqWDVdJSLbEPcAv33fBgGWncTswDNp4OdTmaijF1RsVSYezjQV/cIgK9QN15CIOtrV7Y2HXmmBtwaIfXMDeAg80GVdY8yMYhSMkx+PhFnVKqLjzpVmCBpGvfHFuzRj0/Z4CTULeRfQjCLm4uPDTlStXhBJCSO6o0G/lAXSvIseTQ13RbzHlNYucr5fg0OflhQZJrM6lORTCXeTE0H+xdtQY/Pq0EKrjq4di3ZHPUcHohz2fDESxTGwSQrKtgCu55D1bW1u4ubkJc4SQ3KsNF77TwCiE+lFes0iKiIcxqQ6ohQKJbBSckGe4dno5RvQeXTiBJtOwlGms/fAQFNvEJiEk20QfbIptBCFCij47KKBFbOwrPM1ht0skn+0fhY7Nm6M5P32MNu3bo/2XvTFq1j7cKszrA3vueMz6hw3yxx8UbBJCBPxtdDF3HyTmKgCEEEIIIcUdn9kMDAykOo+EEEIIISTP8cFmZGQkAgIC+AKxoaE2CSGEEEKKLtHX2YyIiBBtoEwIIYQQUtzxdTYdHBzg6OjIj5FOCCGEEEJIXuEzmyzQZA2ESGFQoUr7Mfh5614cOnwYhw9vx0+tVMIyQgghhBBx44NNMXcfxEY+YplZsXL+ej7mDW+Nmq52sOT7zFOBOnMihBBCSHEh+jqb7u7u8Pb2FubExhmdG1cBG91N9+QYxnVsgebNO2H8CZ2wnBBCCCFE3EQfbBaXTt2D727DlehCGvWDEEIIISSf8MEmdR9UWF7iwqNXSOD+cq7QHpamQkIIIYSQYoMPNmNjYxESEsIXkIJ1/ZgvXnHRpln5uujhKBFKCSGEEEKKBz7YZP1U+vj48AWkgF2/iUB2+9ysJMrVp1bohBBCCCleRF9nU9xVAFQo1b4R3K1ZRtMAXSi7oU4IIYQQUnzwnbqz7oPYRLfSC8onGLf8K7xXzgUl1XIYDeF4dHoZxi48j0hqI0QIIYSQYoTPbIq7+yAxcoFbpbJw5ALN2CA/+F47j4N7/kEUBZqEEEIIKWb4YLO4dB8kHr/g24+b47O+c3HkqQrl63+G0asWY2glmbCcEEIIIaR4EH2dzYoVK6J169bCnLhE+p/A2vE7cCM8EVDZo0wlhbCEEEIIIaR4EH2waWFhwdc3FS3Pmihjw30NiTEIe2gQCgkhhBBCigfRB5ti59m+GpxlXKz5whcH/Kg1OiGEEEKKFz7YpBGECosKTcuXAqupGXT/ICjWJIQQQkhxwwebvr6+2Lt3L19AClI52JibRg1SmDtBzv9FCCGEEFJ8iP42urizsndx8s5LsE/g0GA8dmxZjVXrl2B0A2ooRAghhJDiQWZjYzNV+FuUDAYDwsLCEBkZKZSIS9DVuzDzqo/KpaxhZWMPBzsr6AP24fgtqtpACCGEEPHjRxBi3Qd5eHjg+PHjQjEpcKpSqFK5FFQxz3DzUSgShWJCCCGEEDHjb6OLvvug4kAXhHs3ruM6BZqEEEIIKUZEX2fTwcEBXl5ewhwhhBBCCClKRB9sOjo6wtPTU5gjhBBCCCFFieiDTRrXnRBCCCGk6OKDTerUnRBCCCGE5Ac+2AwMDMSVK1f4AkIIIYQQQvIKH2yyPioDAgL4ArGhrCwhhBBCSNEl+jqbsbGxCAkJEeYIIYQQQkhRwnfqzroPYq262RjppGDVrFkTrFN9GpuekEJg0wmLNg9BLWthPpkOtze0wXfbhdlsq4qJ25ehhbMwm8yAp8fGo8+C68I8IYQUf3xmk7oPIjkmc4N1wwGwK20hFBRtNRb5YspZfwz44T2hJD+pYf/pSnTdfgcTzvjzrzvljB++nd2fW5IeW5T+Zg/67r2HiUnrn7qHnt9XFZYXbTLXVug3rBsavhW4iUEC9JpY/k6JadJApxcWpaskyvdahHrNSgnzb4qHXpv2+fQJwiJCCPmP4YNNMXcfxEY+YplZUhhc4fDVYnh9/Dkqd50Lx5JCca7JILPzgtqlGpQWCqFMbNRwG3cK/Ye1gYezBaQGLR9wxGrioAn7B1phrRTlUXuRD/p0rYfSdkok6rh12fq6GMS+EsG4//Y9sXj1OHT/rD9+XDwS1YTiXJNaoUzVWqhVsxIclUJZfogPxh8/tUf79knTFxj7m7AsHV7zzqJHn8/ReuIhtG6YXm2k+1jQP/XzjcMfwcIiQgj5jxF9nU13d3d4e3sLc6TQSPNyV7KHzcfTUbP/LJRvUEUoExmH4Xi/sSuUEgNenB2Dxe08sbC9Fz9tmn9DWCmVxhNRv5oNpMZo3N/6Kea1Na27sH1d7Nv1XFhJHKR5uS9YfYwRMxdh0fwf8U0toawo4T6r6A+ihBCSz0R/nBR7p+7ibk0fiNADs3D/7D7c3z4Gwa+FYgKL9h+irIUEiLiDSyv2IDaTW6gVPqoBezkQ//Qczm25AdHdcQ3djinTVuG3/evx43cLcFsoLq58f+yPfbv34fhP7XD0UqJQSgghJD10UV7IgoODcffuXWFOfIyx/yD8j7UIfx4rlBDGtqQlZNz/sYGXERBuKnsXC2sLfv3Qx7vxWpR1+xIRfmUPVi7bgUtRQlFxpr2M22tG4p9zQUIBIYSQjPCt0d3c3Pjb0T4+PkKxeFBr7oLmiBJdVqJSZUth3iQh8Dhub1jyVl1EeZ0FqN62GiR3N+P+i5pwb1QdVmourErQQuN/Fo/3LEOMIe2676yaF/cM/lu+QVCgMJ9NrIHQp7XMEXR2AR649EN9D1uouLcTp43Ei0urcGjOGoQnJ5uH4IvDY+BlEYRLgxri5AOhGM3QYvNafFDGDEGnP8PaWdeE8hSuY/9Er09cob+1DGu/X4gYoTwjye8rg+fLvqro89MQ1LcXZjOifYRjCxfiyAthPjvSbckdj5dnJqP7zMvCfBIbdFq0GUNqKeG740dcq/wd93ldYMF2BV04nvisxOi5Z2CKU5PWfXdLo/iXZzC5+0ykvJIMrq2H4rvPGqKSawluPzNLuZo26hBwbDK+XnhVKBAkfQbzlzgzuTveetupVJxxDV0b2UEizPPCL2NX5y54kGlyM6l1euat0S29J2LFuOYonfgEhyf1x2JquE4IETn+WMw6dBdjoEkKQyISDRoYYmNNky4ORmHJu8hKNkHZBjVhIdXBoNHDKFPDvEIbVO4yICW4jNchTnjeuDj2rEYk6oXXSZo0WiTmQebPzKMr6lexgVTPGu4YIFXZwq3ZeAxYuRAlWYpR9BJgSNMaOoOJ+y4MOb0LbDRAl6oFtzYuK08kh1PDb9G+jhPk3Hcbq0+ATGWHiq1GY/HIpGZFRm6/Yg2k2PNqYXraN1uLc5NWx4W2SaRw/fpnrBzVEfUqOsFGBehTr6sxwBAXLaybMwnce9KwRlt8Qy8D90vIH26NvVBGJYHEvDRqNMuzplaEEFJo+Mym8LcoeXl58d02iTWzaWNjA1tbW9GO4JSUjZRnktlUGvWIuDQXD079xZ2kZVDUm4eqratCaQjAk00D8SrN3cik7KkCkX9Mwt2zN4Xy3EvKIMIQiL/ndcaJsy/4YNn681/RY1B9OMgjcGtBc+w/FsaVZiez+QGarl6Jeq6mOsQSuRJqJUuZ6qDlornkH1nQKWz65nuEoh867B4FD+6tMDKFGiozCRK44FcXn/KT1Pgux5ZxK1H0KykkZSPNM8lsWnPb/gXOz/8W089EcTFiKXy1cDUG1LRGfOBJTOg5B2lyj1nOPJbCkHWb0amCHDG+uzFq1Fr4vbPrIkE2MptpNNuBYZMawS4i7zObMvcemDXzc5TX3cSOSVOx/6WwgBBCRIrPbLJGNqwLITFiHdGL+Ra6q6sr6tatK8wVY7G+CDrHAk0mAYZ7fyOS3VuWSCEphExixI21OC8EmkzUvuG44qfj/rJFyVpupsJsUcBMbQ4LC9NkzgWa7HarxEwFc6GMn9Rq4dauCgruN5dUzgJNRqZUp6zLTWqVOu1t22JA++B3zGWBJpMYhON/PDbdPpfKIOcLc0MChZ076tV2gyi7++Qk+G/DuO6fo3M/CjQJIcUDf97z8PBA69at+QJSsMTemj6rEiKDoE+551nodJE3wULLFC+g0+fmxug5nOntgenN3flpw++BYFU/Y24twyKhjJ96DICp0f4K/NY+pfzAdQ1fyjKlyety06Is1PcUl3hEvPJDVpKO2ROEbUf/RpA2EQrnhug/cyMOnDqOQ7t+wc/Th6CNR3520kkIIeRdkjObhPy3VYO1FUuxGpGYkF+18QoSayC0EitXZjItHIV2LsJDRC7ywGR069ADk385jr/vPkeoQQpzR3fUbNwJo1fsxOLeZYQ1CSGEFCTTHT0RYy3RKStbXEkhU1oJf+ezKl+jYmmW/QpF0B8PTWUZsoNSWdR/OgXQQKggSRVQ2wh/v0tCEP7cNh/jh/RC57at0OrL4dh+OwqQ28Lro+6oI6xGCCGk4Ig+2LSwsBBtfVOSkWgYNOwmtxzmHu1RokT+DlmprDsHX83siDJcrGl4cgGXLyU1x4lHYiKr1ekA9y4dYXoXatj37gMP+6LeZP0edswagzFjMpkmL8fJotxVpNYfkazVmdQO1dr1R3bvhieEPcOjKKHCRJ7UCSWEEJJdog82xS4iIgIhISHCXNEnrzkD1UbtRW1hqtGiMh+EyUo1h2dS+fdL4VjKtH7OaBF7+RLCDdwOalsLlYbsRR3huetMOIgqH3oJ6+VcySY7MOqwL0Yff4Sx875CJTs54l7/g5PTxqTqVH0L7t6JQCIXopRqthijjvpy0018+6UagY9M7e5LNtmIb2aPE21jlJyzRvtZO3D48GFh2oa+VVnfq3I4Np6cXL5//ajcZRMN17Dxj4fQc4cq62rdsPrQUeG5j+LE71sxPvnJS2PM5rM4e+YEjia/p8M4fmIvpjRy5JYb8Or26VR9cmbTBxvQ/xD3/XP7DD+Nqgsb1nLLpjY6Hkwqv4jWH+b+IkTtPQO/nuU+y++bMLooDtFJCCHZxAeb4h4yUdxE18epXAUzCwsokiaVmam1tEyZUmauZkmkXDEGr8Kj3b/h5fMwxMXLk19TjnhIlJn1VJ6xBJ0W+gRjcqtvtTQOMcGPceO30VjVozP+fZq6E08t7k4bglP/vkQs9xMxU6uhYF0mrewPP42pHbtMaQvnMhXe3RF9sSThvnvWYt4ieVKbma5dZcpU5WpVLrOJiXi6ahym7rgE/1At4mXse2PPrQLipVCXFFZTlYUKsdAnmkGd9NrcJI/XIDroPv63bSqGzM5xqAko1NzzpvQSYGGuMB08pez1ksq5/SMPqr/blLHmPgvHEIKH1KE7IaQY4PvZZA2E2KTRmFrEigmNIEQIybHkUZBYp/E6pHRxqsfdzV9g7G/CbLZVxuj1C+DtJMxywbmcC86Vssz72aw6cTuWtXCGwf8wRvf9udiPM08IKf6SM5tiDDQZsWdlxdzHKSHFhwxK85SMKMtUqnKVrpZDqU77fKyP/8zZorwty2saoQt5SIEmIaRYEP0IQmIfgUfsIyARQvKSK/osX41eXmbwPzwafX+mcJMQIn58ZtPNzQ3e3t58gdhERkaKNtBkqI9TQkgKW7jaWQBGHUIeUqBJCCke+GCTZQYdHBz4AkIIIYXEygXKxFjERrzE0ydCGSGEiJyp+aiIsSCZ3YomhBDRiz6FKT3bo32nwVhOiU1CSDEh+mDT0dGRr/NICCGEEEKKHtEHm2Kv80h9nBJCCCGkOOODTQp4Co+fnx+OHz8uzBFCCCGEFC98sBkcHIy7d+/yBaRgibmPU0IIIYSQzPDBJhub29fXly8ghBBCCCEkr4i+zmZERAQfLIuVmPs45cncYN1wAOxKWwgFYqOGfavJaNq/N+zEVv1X6oZKfRegTqOcjxVPCCGE5Dd+BCGxj8IjZuIeQcgVDt2Xo2IFNaB9iMebhiL4tbAoV2SQ2VWGQi1FYuQD6GMNQnk+aLkdQ8d+gBIyI8IuT8H6CVuhExYVbbZ4b/FfaF/DHIh7jj/HNsaZG8KiIkxZrjqad6yLenU9UMpSDonmIQ6NX4vjT4UVCCGEFDt8ZtPV1RV169blC0jBKjYjCEnzMkluD5uPp6Nm/1ko36CKUEYyxG17MdyicOkxADMX9USHDz3hzAJNoZwQQkjxxp+jxBzwsPdubm4uzJGCFYjQA7Nw/+w+3N8+Jo+ymgXsVH/sXLAB53dMxfYpYslqMhG4PmUwDuz5DUd/bI9TIshqSs1kkOjC4H/9f9i54jyeiGdjE0IIyQXR19n08PBA69athTlS0Iyx/yD8j7UIfx4rlIiNFqEnfsKF9ZsRLrIewIxRPri5ajSu/hUqlBRtQXu2YFLPOZg79TAuPImDUSgnhBBSvPF1NmvWrImKFSuKst6gmN87I746m44o0WUlKlW2FOZNEgKP4/aGJVzolpa8zgJUb1sNkrubcf9FTbg3qg4rtYx7gBYa/7N4vGcZYoQqmUnrKk2z6Yt7Bv8t3yAoUJjPtmZosXktPijzdjY/6PRnWDvrmjCXfZV7TcP3DUsKcxnR4cnvP2P+oWfCfHZYoer8P9GpjrUwb5L46jy2d+0DUQ2lXbElxsxoifKJWamzqUKLHzdgjLcTEvwOYvi3y+CXICwihBBS5Ik+syl24uvjNBGJBg0MsbGmSZe1DJWsZBOUbVATFlIdDBo9jDI1zCu0QeUuA1KCy3gd4oTnjYtjz2pEol54naRJo0VirgINA+K0GsTGpkw6/rVyL8Gg454vNpOJvV5OP4ARCbpU710Tx30b/wX10NTLCQrucKWuUBOfUK0ZQggRFT6zyTKD7Ha0GEeyEXtmU+ySspHyTDKbSqMeEZfm4sGpv7gASQZFvXmo2roqlIYAPNk0EK+ChAfwkrKnCkT+MQl3z94UyvNHjUW++LSWea4zmwVN0WEfvh1eG5Z5ktlsge8Wd0IVhTCbkcgb2DJtDS7ltr5ltjKbQLmeCzGrcxloLm/D6FmHEE734AkhRDT4zObDhw9pyESSv2J9EXSOBZpMAgz3/kZkDPenRAqJjC8khSoeek16mdg3Jq2eW7PgPdk6Cl07fIl+MynQJIQQsRH9bXSxj+vO+jhlHbsXdwmRQdAXRpRCssgHa34YgzFjMpmmb8IVakVOCCEkG0QfbPr5+Yk6K0t9nBYfrIHQypUrM5kWYUyHMsIjCCGEkOKPDzZZi+hOnTrxBWLDMpsajUaYE59i06l7vpBCprQS/i768r+BECGEECI+fLBJAQ8pWqJh0LB7tXKYe7RHiRKZtVopGh7ump3+rec00yQsO/5CeAQhhBBS/Im+n01W39Hd3R0+Pj5CibiIbdvLa85AlY88kRz+yRQwU5lBkqCHQSdUyowPxPPd3yE46B2t1a26oPw3X8NRmX6/mRLHoajUtx3s2AsZ4xCnMfBdLEkUcsRenIB753359fKCWFqjm32yHX2HvIfkHk4lZlCbm0GaaIBGG2/qgioxBDdmNsXpv/k1ipRqI0egT3IfoTIozVXc5UQ8dBo9TLnecFydtxQ70xkNqf3c/RhezwYS/0P4tO9iRAnlhBBCij7R19m0tbWFg4ODMEfynVwFMwsLKJImFmiycpkypcxcDWkuW5gbg1fh0e7f8PJ5GOLi5cmvyYITidJeWCsvuEClFMfPQKJQQ21hDoukiQWabIFUAfPkMjWK6o0KuVLNvUcLYeICTbbjSORQpSrjriXS5Whlwe9nESF+EMYAIIQQIhI0glAhY+9drH2cFgvK/vh05w+oYRuLu6s+xp49L4UFpOhogmm7f0STksDj/Z+h/7JooZwQQogY8IkRsXcfJGbUx2lhUcOi1vdotfx7VLPlfgbRAXjkQ4Fm0eQCawuW14xEyH3KaxJCiNjwwaa/v79o6zwSkh1VZ13BqKN+mHz2LkYtGoEGFawgNYTg5u6RuBYsrESKFpUd1Aou2EwMR+BFvVBICCFELPhgk3UdFBISwheIDWVlSXZIzFQwV8sQx+3zUcHPcM9nPbb1a4QDOx5kaYx3UgjqOcOOHakiQ0CJTUIIER++zqbwtyixxkGOjo7w9c271skFifVx6unpSWO7E5KRjrOwu191mD87hm5DVoFqbBJCiLjwwaaLiwvYdOXKFaGYFBSxN3AihBBCCHkX/jY66z7ovzA+NyGEEEIIKVh8sCnmEYRsbGwoUCaEEEIIKaL4YFPMXF1dUbduXWGOEEIIIYQUJaIPNsU+rju1pieEEEJIccYHmxTwFB7q45QQQgghxZnoW6NTa25SlMmdG6P715+hac0KcDSPh//hCRi21k9YSv47ZCjZ8Cv06/QhanmUgkXCc5z4cTCW3xYWE5KGJT5dsBXf1bYR5lMYfDfhk6FbhLns85iwDWtaughzKeKe/44fes3DVWGeFL76EzdjckNbaMOe4/7FPVi74TyeZZgbdEPvn+fji4pyRL18jNtnN2HxrtvQCksLG5/ZfPHiBXV7RPKFU70V2DfdB0cGjkNNoSw7ZJbvo3OTfvjIXimUpFJqCjZzz30y9TRuMToKiwuXHG5fzsbWX6ah90fvoVxJa1hYmEOtlAvLM6CsiSr9FqBBKw/x13EhJjIXdPxpMzbP7IeP63AXHdYW3L6ghir1rtBxP0ae9ceU7etRSijKT7Jy/dFi2SWMOvEEU9jrnn2CH3bvQXUHYYU3KGr/iI4br2PsqaT1H2Psup9RUlhepMmc0bLvd+j+vrVQIC4Jeg1iY2NTJm1mIxtYwKnDdHj3+RL8KK9vSNBr0zyfRp8gLCFpSaCoMQiNBn4DJ7VQVMDMlGruWGEFhzKe+ODLyVi3YykG1sio6qAMSrU5t74tnCvWRssBi7Fn02S0zuA3XdBE36k7y2p6eHiIdnzx4t7HKQs2V7WvBkXgMUxcMxc3hPIsMWuKKYOmo3FJCRLCLmLx8vE4ES8sYxzHYvXXH8KJ/S2RQ2WuhCz2GlbMHY6D/AqFx7bVNKwc2QSlzBKhfXEFe1ctw64/A6ERlmfEc/YNdGpgA2liCK7Nbo7DZ6KEJcWEmRM+HNEJH9UqjRLmXLQVr0Nk4G38vnQ/fB7lvjqP1LYuOvdpjzrlHGBpJoExQYeIF77w2bkZJ/3ffn5lxVbo8UVTVHO1g1IGGONi8erRP/h9+6/4O1RYKVcs4T1xFSa0cIXCqEPQvwewZukO+DyLEZYLWLD5/XuwfHkaa7v3R5BQnB9k9Zej99S2KK3iIpEEAzS6eH70LMlrH2ztOxivTKsls+6yH737vwc7fvvooDUk8uvrHvyCLaMWFPFO9m3Qbck29K9uARie4tjYPlhwU1iUKxJYlvZCRQc5tC/v4/4rnVCeV5Iym5YIOvcjuv30l1CeBZ0PYtSgmlygmYjgcwOx9qdTSBQWpScp00mZzbQk5Zaj77p2cOWu+jW3VmDJ9/NRKBUOVc6o/3l/DOjijfJWUsS/voTlQ37AoQwGfZTbVUGLbgPQp31NOCm49/7wAH4Ysgw3C7m2JJ88MTc350fiEaOHDx+KNtBkqI/TrJFIpdx12xuC52HQ3Db4jE2b/kCRGdpcXheDujfkAk0jNI8OY+LX4/FLFgLNYs+sDDrOHowvG7nDXg3oYzXQQwlbt7roMq0P2lZ86xvOHmU19Bj+NbwrlYSlPB7a2FjoEpWwK1MbHfr3Qv03EgJSp9b4dlBH1ClrBwX3TjTc+zFILVCqije+6tsRpYX1ckPmNQC9m5gCzYDfp6HPmLVvB5oFyhm1ujeDKxdoxgWew65uXljQ3gsLuWlBOoEm0BoN21fnAk0jon03YnX7KsnrryjygeYb0juG5JgFPho+A4sWLcCPA2oLZaS4kkkzuSOVn3Qv8feOnzBo+FbcjjJCXrIeeoxsy11GpS8+/B5OrBiJIQvO4bleAvOKrTFsQGVhaeHhg013d3d4e3vzBaRgib01fb6Ku4DZOxZg17ktWLB5Mo6lzmoWYZYfdUIdV+57NTzH+ZVLcD0bV5R3p/bCb9t/w4n5XXE0l1lNp+Z9MaxvW7znzF3eFgH2HT7CBxXMIYl7hb9XzcPo7lMxYsBmXHiqg8TSAx9+3QAlhHVzwrqhN6o6Srj9JhAXlo/GqDFjMGb2MTzScQc6u8p4r56wIk8K1w/roKI5kBh1B/umjsDoMaMxfu0/CIEEqtJeaFhOWDXH1Pjgq/pw4zZ/fNCfWDv/Mgp9aHf73vCoYMF9wij4HfgBD15n8qNq0hnlHVkGOhA3V8/E6/z+AGZOqNW6D0aN7obqQlHuRGLnlB+xcs8BbPhxKObmSVaziNvTDduWbIHPlvHYOuPdWU2SMeOTYdg1ax18ds/EprGzCyermUr8k82Yu9cXMdwlk0O1T9Dx7Wq3aYSdnoNVf75EAlRw/+BLvC+UFxY+2KSAhxRVcaFH8Mu5DTgdqhdKijo53mtcAfZczKN58gd+uyYUZ5X+Bu5tGI3LJ/xyfZKQqmzhXrctvpk0D7PG9kXb95xReGGnHd6rUxZWEiPCrp/CrpMR3EGQE+aLPdwBNNzIBenlqqFBWX7lHLEoZQcr7v+4YD9cuWs6NSQGHcXCkd/i2yFjsSbNnUhLlHew4oIuQBdwA2eEW+b6Wxsx5Vtu/e9n47cnprIck3mimYcj9xp6PL24BxeF4kJVxgUWLEkT+wJPL700lb1LCTuw2g4IfYj7d/Pvas/MqRZa9xmFn+ZMxoD29VGhhDrPspDGyH/x26ql2H6xmFVJyVAsXh2aAp9NvyJW1JXkCpsRsWdnwmfNOrwqIq1sAg+cxP0I7g/LMqj1fka5zSTxuHjgKp5zF4gy+4poUsgJeL7OpphbdHt5ecHT01O0rdFFte0dRmPtt+3hrhfqRSbNJzzEb6v7YW2UN6Z+Ox2NSkTh6m/tMeFW6jqbx7H0X3t0b/4eSllwFzcJWoQ9OYPlu+fjzzRxpBfGDVmFFnxFzBQxd5bi893v2EassdC3LeCchTqbZvadMKrdV6hXxh5WChmMCXpEhzzEX+dnYNGdF8JaOeWJ4b8sQgd3wP/QWPRdzG2Ed6m/FgNmfIxSb92lCcRffT7A6afCbA6YV/gIX37mjRru9lDxl5VGxMcE4qbPcRw9dQ0vU2epnNtg5Oh2qJhZRfiwf7Bq0kZk8qnS4YV+G/ugrl00bv+yBCsOpTrxW9fDt8s7o7p1BK4tW4S1Z3JW/61U5x8wuVlpJLy4gBUzduG+UJ4+K3wweCK6V7eG5s6vmLDifN5nLtwGY+2qzqgoe44TE3th7ruqZSfX2TyHQ5ed0biVB+zUXLgVp0Pk84s4P3MQbj5O+aFUW3AHn9e2wKuzX2HNjEtCKeAy6n/o1bYMFBnV/ay1FP3mdICrwRfHBrbBlczizXytS2oGp1ofoXWLRqhezh5qfh9NhC7sOR7ePI/ffr2Uw6ox6bfkTgg6hx+7/YQ3az9afroAW7+rDfW9XZj0d0V83+k9uFpw2547LoT7X8DqUbNxSthdk9Z952k+IQjnfuyG1NUsZc6tMGT453i/kitKWJnDjP+sjBH6pycwpc88/COUmGSnzuZnaPvrItRxYJdOaT09WAOblrw7yM7LOpttR61A2wpvv4+0wnFl7ST8cr06vp4xCPUyvZ3xGMeHLsDh7F59y7vj090zUcPONGsM/RM7+qxGqTlL0cTTDgppIgwhD/Dnwk743+VY00rK+eh9vDPSVmxLxOPd5bFtjTCbBmtENBgf9u4Oj0oOsLVQprpISoT+9gbM/W6mMM+w9ceh5Xed4VXaDmoFtyOweuuv/fDv0q9S3keG3NBv5XJ0r6Li9osp3H6R2SXs+5i6awaaOsbizqZBGLYlt+e3nEve5cWKOnUvQPpgxLA4wKwE3JwBtY09LFmQxM27OnL/q9xgzRqNx0ciOJz7PzUzD3zZrB4c5QZoNHokytSwr9gWY7sNg4ewikkC9LpULSUNedtSUlbia8zpOwzNKzjCUhbPv4Y2QQ5rp6r45IsVmP1ebusuW8OOO+AAOoT43TMVvUucFrpY1to0adIhPo+yEZpHp7FpwWSMGb8Au8/fwYvoBMgsS6N2228wacE8/NA/1S32xDjoNSnbPcNJazBlJLOrIneS5QNZPWICoyB38USLrz9B6+YOkEW9RkgU+x0oYFmK5SZzJvTWMwRz205eqhoav1lB8y3R8H34kq9Hq65QD23yooLmmyxLwELF/W8IxeOs3r41q4S6H1eBrZT7nfB1SJWwLdcMHZefwIdV37oiEaekW+U/zcHkAe1Rv4I9lIYw+F87jR2LJmDspDlYmeNAkzHCoEvVglsTl6W7BLKS9TGkY13uwk/PPU6PBJkSdhVaYtTS0aghrGM06LjvxfS8mjjTs77VWjxWC32qw7rEqRcWrR6DT+t5wMlGDYkh9brcd2yIQ+5yrnrE8b/dlOOIrpCqHMWlOnZnPGlh4N9fPPTamHSWvzlxn49/9mwy6mHQsu3BvR73VUlsSqLCiAVoVtUKiVy5Pl4KhUMVfDh+E3cpLDBy312q7ajPZDtKPJeh54KxaPieK+wtzJCgSXkse11dXNp6J5Iq89B1ziDUKc8uruL49bSJCtg4V0ezGT5o+6GwYoYCcC+EpVllUFnYcJdrmXmFFxFsfTnUtramokIi+sym2PvZFFdrdCHrWOIZjm/sgV2lV2FlS2fo9dxV1oUeGP5kIDZ++zFcNSnZxaTMpiX3w396cSaG/+7D1zkp23AZFrepCktDAI5s6IWlGWRYqrTZhaUNnfMos2mPjl02YkhVa+ifn8KczTNNWVVpSTRvvQQjG7gCOWk1n0YDTNs9G01KRuDynM8x4aRQnGUj8eWx71BFlfvM5tsUKPUeyyS9j+pJ2U7tIxxbuBBH8vuCt2JLjJnREuUTH+LQ+MMw+34wWlfgIrG4QJyd8iv0/dm8GV6cXo2flgcID8omswroNHIoWrgpkRhxC3sXrsI5/va4NbyHTESXqjLc2jEaq/7g14bUtiG+GdMLNe2M3P5wAWvn74bp7rszukyaDO+SgTi/bCZ+fcivnn1VJ2L7Mm6fjPkXSzuMxgGhOF1JGUTutPry/BTsnLkTMSyqdx6IDj+PQS1HOSKv/oS1Yzbw/eZlJ7NZauhJfNmqtHBi4k5SrNcG7kSv06S+cAjGtTEf4ix3feQ54x+0qWlhKpaawVxtBkmqVuu82Ls4810nXM9BRFil13R815C7qEvUIezpXfz71zmcuvQQ0fkUICVlIy0zyWzasG1/YQEGTz3FBX8SlOy8EGsH14JNwkuc+aE7ZqZJPWY982g/aA12fOkBeew9/DZ6JFbdz0rmPhet0Tnvr3qElpVlBZ7ZLJKSMpy2EQh/FYabM9rDxzeWCxRXof+y1nCWhODqlLo4+qewfjI1mq6/iw/LZ5TZlKH0j5fQ17skjKH/4LdvOuMuu8WdIXvue7nEfS9m0D74FVtGjDXdnpe4oPrco+hY1w7GB9swb9CkdwbXH0z/FT81doDu0V6M+GZFJndwymPA6qX4qpI5wi/NQKcfzgrlBY/PbLKrBw0XkZOCJ64+TmMRpuEOlGZ2KGUvg6NDCZgF38PjaBmsbcpDZqaATAIYIl7CX3hEMu09/H6aBZpMAp7euQR/NiORQpZ3TUTfTd0IDVxtuAvqIPx5Sgg0mcTXOOtzGPeiuXCshDtYLynFkwGv/bjv62kQwnW5rRGaG2ZQJN1HZC2Ek79/KeSKHO4MSk90GTUEzblAk5HaVkOHgV3gyUdY5nC0seS+ZwMMwncudWiGAWO6c4Emm5NAWboJevZvxp0OOFblUYJbna2vK+iG41yQ/NdSIdBkXq7B6WN+fIBp4/L+u2/fZkCqVMPcgvW/xyYu0GR3OVlXYcllbFLDTNj0MlWqchZo8oWKVM/BTeZqyHP5u03URyDo+TP4P36Wb4Fmtuj8cHIOCzQZI14fv4BHkexvCYu5c02isIVbvdpwE2d3n+In4S4n7s7gA03G6PcHXvPfrxSSXH6/ErUjXBvVg/W7qiEpBqNcOe6FEgLw909CoMkYX+DW5N8RwB2Spc5eKPx24/mDP+KLvfsgUlC0XJDCrrm4g6/MFV7cCdwQ8QC3ogywK1Eezs4O3PU4EBcVgLv8+ikM4YHwK+wTikVlOLA3KHdG869TdQTPprGDUIPdwZVboaRQxyd3JFzwnQdnqDzBMppt8PXonzB/zmh0+bAqnNWJiHlxBz6HDsDn7f5u8o/aBg72T3Hg5wM4f+U6zv2yC/tuS7mYk4U0WkS+yklnOmrU7t4VTcuqkBByHXu3/Q/PDSyAbIr+ozrD09oVNubc8ydEI5Lvm84Bbft0RA07CWL9z2PbgduINEphW+0zjBjEBZxqB1iZc+eAuCiE5EUlRYkM3HVY1mjDEPpGdkQTqctZ1QXBi4VNMKe5O6azaeQhBLI7ezG+ONZdKOOnBjhxx7T+7dFVU8qXXDNdILJMafK63NQhC/U9M/DoxCGcvBGIWDMneDXugP4T52Pe5KHo9kltuKQzdkNBSYh4Bb+cVRd+p9BtR3DppRaJZqVQv+8MbDxwCscP7cIvi3/C0LaVwWpakAJgjMXrW6kye/HbcaATty+3qI0j54WybElA4OaDuBfB/TrN3dBo9B4MP/oQY/ddRu/5G1G3adohDyTVK8KGHQdkbvDeygZGSDUd74pyXDQmsbBGVq9FdKGP8Fj4O3M6hAflZ++9mRPSC+Il9nHdxdXHaTBuR7JTjxns7OuirK0SERG3cS08GmbWbqhhbckdOOMRE/2y8Lt4SU+CFnEs4E2IRODj+7j/KL3pHh68Wd80W6IQHsvSZyo4eFQxFRUSmX01fNJ7OKbMXYDJ37RDvfL2UCbG4MUdH+xeNBETZqzAbp9HiOZv17bByIUrsXJlJtOMr3PWJc3DQITxt4zMoC7B7SVPrmD3jB349Si3r5jZcwE+izISoI9OaQSTZWZuqObmAEliBG4d24gzf+3Gsl9MAae6rDd6fdsK5UqwYCIQD1gLc/t6qOjCHfUNz/Dnjl/x18k1WLrfF5GQo0T1DhjWtybfYEv/4gmE+CtnYsIQy4IXhT3KJ1X6ywE7ZyvunXHnSmNCym1sEYt7dQUH1szEuFHT8cvJGwjkDikWzl5o3KE/Js6fhx9H9EG72i4oxLgzb8Ucxo/dO6D7xPU49rcvnofqITV3hHuND/D5qOXYubTvGw1SxIs1EEr3uJFmmom+tdjFZQ18PSO95W9Oo9E+TyIVA/TvvM2dfUb/Gfj181pYMnc9rlzzR3BkAsxsneBWpxnaTL2IwdO6pdSrDNdyZ0dOXASe3/fDo/SmO7fT6es2NTdUcWDpUyMS4nRZqMvqBBdbYX19Do6teUj0waa/vz98fHyEOfERWx+nkWHhiOV2G6WVJ0qaGxD6+gbCX4fCYOuMMkold1KMR3TUM2HtQiA0XkqX7iki2clfkojAK8MwbPOAt6cdM3A0swaB7/QM91+zKilKlPSomycdg+eUY4OP0bJBJZSykiEh5gXu+OzGookTMGPFbvg8ik6bLcvvBkJ4iYCXbMPawK1hJaS+2ySvVwmlWVZZH4rnd3LQVEJlD75NVqIG0eHs8JuI6Ju7sfagKWNpU7Y07Lj9MuTBVfDtdMwsoWbrx8cggj+yJ+Dl6XXYcuE5DBIlHMuWgsqogf+dy1wAmgvBvgjmr80cUL6eu6ks22qhWp0yfPYrPOAEwkyFGVKaK8VzUI97hSsH1mDmuFGY/stJ3Ajk9kmZJZw86qPNF63hKaxWtEmgVGelckMCXl3cgQXjh6JX53Zo1epLDNtyk9u/ZLDxbIEeafqAFa8i1UCowEQj8sQMHBv1IVZ/Vhkz27XA1hMBXGgrR8n3+6COsJbxeSBiWRZGbsCL9S2xfXA60/fD8ci0evqsaqBKKVbPKxZBfg9MZe9S7X242bK7OpF4fvOdz5zv+OMS6z6oU6dOfIHYsLqmISEZjNskAmJrTa+J0fA/IgtrV1jLw/EqRI9Xz14h2qwUqrtyEQN3wn/9OuvJ/TyjfY5wFstwJ/YK5Suk9Ccps4NtUopEexpHHwbDKLVDndarMP49L/62f96KwZWrT/l6XxZu9dE6pzFGXjAmmG6V75qL0WNnYMVuHzzi05jpeHUKKyaPwRjWEfq7ppnb4Ss8JHvCcfPGc8QYJShRqyW+/FCoGKsqh46da8BRxu1b/r64lJPjYbQfXoRxZy95KdRo8RGc+Z9UIkIu7MPpe0LwmqhDVGSsKcsQ+djUW4K6Ihp9UV0IfPW4//vv+DtQuPqPj+TWz2Xrb+0NXA5gL6RC2TrtUMlUmnWWH+KDpRvRpDy3Axue4s6OQ8kn3cRE05CR9p6DUFFowC8rNxa1a9rzWVBxicOrKwewZuY4jJr+C3+LPTqvumTIN3o8jmQXlVLYVm2LAZWzeTM8gbuwehgF0137vKkTWhScXDE2/eNGmmkGtt1m368vdszMyvrL8HthVjHPLs1jvA7SmLKYUmnKxZ9hHm7d4U5SEkfUnXQS3h+5p2Q9s6hEi6Yoz65tYp/j2vnMWnXKUevjaijFnQwTQh7gQiE3DRF9a3SxE922F1p9l4yJRpzsGfYsHYxt8r5YPKg7ynNnOZUkME3r8gzHRrfqhUWD+6Ga0tSy/efnpmKPlhsxr3ZKJ5sSMxXMWV+YcVpoWP8VjPYm1i4dj7S1jEuha/cN+LoyFz5yQZZeq+N+7FIo1Am4va8txiW9sNIb476ehBbsNion5XklkKuleHZ2ML69kMtg2bIFpq0bhyZOEoRdWY3BY/fitbAoc/nZGr2Q8cNV9kOriuaQGE2toaFUQyWXwBjjh6NTf+EuBnKWN7VuOhgTulSHDXcRb/pOjZCrzE3jncfHI1Euh4zdZt+7EKvORcGj82gMaVaGuyhht5e00MVLoDBXw0xiRGJ8IiSs9Yv+OS6snY/dQgfxOaFuNBHrpraAizQSNzZ+ixHbM6jomNQaPbnVt9BqnN1tNITi1raeOLjNN7kLH1mrHRg0uhHs2efjxyvnNq858PzGMzjW8oAF9zwRQddxceKX+Cf1PlSk+tnMHxZtZmDt4Jopdd8kCqjNzSBN0Ke0qE8Ixv9m9sO8f1Jao7/VWt3yUyzY+h1qW77dbyYjcRmE1Ru+hAe7mOX3Zz2f9ZcoFIi8MAndhebrjqM2YVfbMojXaaBP2r3lKliwnZMT9/IMpnWf+UYreWqNnlvSZpvRf2Q9sKEbzNRqU7+aGh3iuB3A+Gg7Fg1P3f8lo8L7y/5Fo1QJArmSO4Zw57XU313KY81Qec4VdKlvlfy8jJQ7Z/H9Z3K09zZh7bdTU+6QWH2Njhsno2YJ0/JEgxZa/oHsPUrxZGNl7N7OL3pbidaYvmI4GjvJEXF1Ob4es/+dd17kXoOxbO4XqGwRh4AjY/H1osIdPks0d1wywroNqlu3rjBH8l2sP0JjuB3Z0gpmMcHwZ9nE6OsIjpVDxX6VcWEIyGHDAUZmpoaFhUXyxAJNRpK6XK1KyVwmC8KvR9bgbEA49EYZlOZsPTniYzWQqMoL63D0Ppi7biCWXriGp6wOjTzpedWQxxkgVaat1J0jMWfw845rCOPeR4k632DVyjFoXTaL17COtlCwAKM4inuGg5PWY+9Fbh/ScnGmhTlU0jhEBlzB7h835TjQZKIurMHcjT548DpG+E7VkOrD8Oz6SWyY8yPW/e85DFJbVOswEF08Ab89i7D84FVuH2ABL2tdrUBiTBDu/7UfS36Yhf2+3GFcWRpNevZHM76Jes5o/1qCjX+/hlFqgxq9VmDNDx1Q7u2dl9s2XMDLnc2MSa2+zWWIiw5BwN+7sfObRtifKtBkEk70xW/bruJlDBcI8yc31mXSfBz8X4wpmOKex9bVDSVy3m2paEkU3AVq0rGCTSzQZAtkylTlaihzmU00vliDsZO34eKTUGjipVAJz62WxEGqYh0PM0q4q7jDpj6Riy+TXpub5PHQRL/Cgz92YOrgNwPN3CoPpbK4HkSyQcFdyPK9J7BAkxVIuQtKU28K5qr0MtEs4DMtT5rYKY1hF65JZSmPlcJcbuQv9JKel018/5kRQbh3Yia2jEoVaDLRG3Gwd08cOH0HwZF6GLn3aHocd7wycPuNVXpjUMphV7MHZiwZig+czGDUPMSp9e8KNFUo32YUFk//lAs0JYgP/ge/bij8cVppBKFCRlnl4kqJGoMXYXonT1jzBzruqlobAb+DEzBsrR+/RnrknfZh2Le1YRV1Dfv6fIbb77p0JeKgqIy+82eja3Vb8JdOxjhoIx7j+I+Dsfw2vwYhb0jKbNrwncbrUlUrMNzbjk5jdglz6VCPQ5ffBqOyOgI3ZjXAwdNpG4aUH7kOS5qVEua4IEDOBedK7uKmuPazKWL1J27G5A+cuQBXzoXC3KFD8wSnFo3DnLPpVR10Q++f56OzZwmYC5nV+NBr2PrDeGz1K/xar6LPbNIIQqRo0uPmqiHoMmQtzt19gQhdIn/VrE66VH6Tsgxcu25Ej961YMUdVaKfnBX6+COiZ7iPX77/CgOWn8adwHBo4+VQW7DqA8JyQt5BxjLvSRlRNqnTS40zFrCqPx7t1vRBJVYROcIP9y+83QJZpnzj7pFwO58UPWbsu1JyZ5PoEDy+9Ct+Gjwog0CTkUHJnWPMWdY8IhC3T63FyF6jikSgyfCZTTFnBykzSMTrW3y6ZygqWXOBh1nKbS9D8CX8PqI7rr/M+W1lQsh/Q72fb6FpZS4oSX31onuFK6va4NhhfggtQgodn9kUe/dBhIiTnM92snqLmtgovPa/hb83DcPKHl9RoEkIyRIpq/enkvBjekcGBcD39FJs6vU+BZqkSOEzm8LfoiT2OpuEEEIIIcWZ6OtsRkREICAgQJgTH1YFoHXr1sIcIYQQQkjxwgebYu4+6MWLF7hypZB7K80FvoK2ubkwRwghhBBSvPDBpq2tLdzcisvorIQQQgghpKjgg00xdx/EsoIODg7CHCGEEEIIKUpEX2fT3d0d3t7ewhwhhBBCCClKRB9sUqfuhUtWsiF6TVuNXQcO4/Dhw9i3+jtUF5YRQgghhPDBJo1iU3gCAwPF28BJ3QBjFkxFnyaV4GidNBqF3DQ2MyGEEEIIhw82xd59kJhFRkaKdtur67VH7TIKICEc1zf2xyfNm+OTrxeBhnsmhBBCSBI+2BR790GkkOme4tLuxzAIs4QQQgghSURfZzM2NhYajUaYEx/Wkp6NgiRG2ttX8SyS+0NdBjWbmcoIIYQQQlLjg00xdx/08OFDHD9+XJgTH0dHR364TVEK88Efj7loU2qLKh+2g0IoJoQQQghJwgeb1H1Q4RF3a/owXPULho7bjSxcqqCqUEoIIYQQkoQPNsXefRApHDLr6mhd3Rkq7u9EfSwiTMWEEEIIIclEX2eT1Xfs1KmTMEcKQpneM7B2614c2bsEXaqooXl5Fb8u3YAnwnJCCCGEkCSiDzapU/eCZ1m6HCq62kFpDMez+7fw98l9OPqA2qITQggh5G2iDzbFjrWmDwkJEebE4e7M7mje6iuMXHcJUfZe+LD3dKya8QVohHpCCCGEvIkPNmkEocLDOnT38fER5kQkLhjX98zH3FOPoYEMlk7uKCMsIoQQQghJwgebvr6+2Lt3L19ASNbZoFYlJ5jDiLjIV3gmlBJCCCGEJBH9bXSxZ2XF3McpbJqgaQU7wKjBk3+OQ1yVAQghhBBSEEQfbPr7+4vzNrRAzH2cysrVRmku1oQuAFePU6hJCCGEkLfxwWbFihXRunVrvkBs2FCVYmtgk5qYW9NblraEkv0hVcG6BF9ECCGEEJIGH2xaWFjwt3MJyY7Iv/7Co3AjoCyHDot24ZdVa7B6Vm+UE5YTQgghhIj+NrqLiwvq1q0rzJECFXYY85f/Dr/IeEjNHeFe2QPly7lRq3RCCCGEJBN9sGlraws3NzdhjhSsBLw+Nx8DP2uDz77+DiNHfod+30zHBWEpIYQQQojog00aQagoSEBUwG1cv34bz2KEIkIIIYQQDh9sUqfuhYf6OCWEEEJIccYHm4GBgbhy5QpfQAghhBBCSF7hg83IyEh+2EQxoqwsIYQQQkjRJfo6mxEREaINlBkx93FKCCGEEJIZPthkwyV6eXnxBWLz4sULUVcBoD5OCSGEEFKc8cGmo6MjPD09+QJCCCGEEELyCh9sirn7IJYVZJlZQgghhBBS9EjKli1rrFmzJl93UIxd8LDb/ywrK9bug8S87dn79vDwwPHjx4USUiBqj8Xm2Z+gzFvXiC9welAPzHogzP7HVJywFWtbugpzKeKen8APvebiqjBP8kstjNo0B23LKoT5FC/PDkP3GXeEuezrvvQY+lVTCXMpoq6vQO+RexEpzBNCiibRNxCiTt0LT3Gob2pZtwuG9G8DdzHuRsY4aGNjEZs8aaFLEJZlQOr6KeoMnYnqVS2FkuIjQadNtS1iodFnsjGKMsva+HLIN2hb/u3AregzIk6ber+MhTazHVNeDuW6z8UHnzdCej9Fg06T9vnijMISQogYiD6zKeb3ztjY2PBDboqxRb3Ytz0aT8aOKc1QSm5E2D9L8M24QwgXFuWKsiQ8KrvCIiEMj+89RVRexzxJmU3dLaz/5nvsCBbKM/UhPtqyHo1Ky2GMuoWjg9vj35fCoiLKompdtGxXF3Vqu8NByV0bR9zAxoHb8bdeWOEdkjKd4stsvo8ftk3FRy5mMIZfxfIBY7A/VFiUKwo4VKyC0paJCH9yFwGReb1jJmU2DbizcSCGbc36zuU85k/0ae0KM2MM7m/uiN1bHglL0peU6aTMJiHiwGc2WfdBISEhfAEpWGLu47T4kEAqkwh/54GqX2PS/EVYNGsU2tkLZcWcRO2AsuXLo5yrbbqZqZyo8v1IzJn5JVq9X94UaP4HSaSyPLz95IXek+Zh0aJZGN3BUSgjhJD8xx/HWLDj4+PDFxCSVaLvUP+PeZi8cCsO7FiAkRMO5k1Ws0g7j7MTRuPovu04MLFrnmY1zWt/gW9Hj8aIvq1RXijLLbmZHMaYYPj9fQob1lzB60RhQbF3EQsmL8DW/TuxcNR47M2TrGbR9vLnHti1YTfOrBiAfZlkNQkh4iP6dIHYAx4x93Eq9g71AT0endiIpeuPwf8/MhBVYuABXF0+EbfuxAglRdeDtSswpucCLJp1ClfC/jORJs/w5BQ2LluHo48NQkkxF/8ET7aPw5/7/gKNCUdI8cPX2WSNbNik0WiEYlJQxN6aXnTSbckdjVvrv8H3b1V+rI2xm2fjkzIhODdjFxK69EbTiiWgkBgRFxOEG79NxcQtfsLJMWndd99Ejr61Ht98vwMpr2SJur1HolfzGnB3tIGFUobkG/oJYbiyehDG7n2jiks26mzaDzqNvl9WhFqYTxZ2Edu/6Iq8yiFZfDAIk7vXgPnL/2HFTztxXyjPMw2+wPRx9VEyqnDqbLYduQJtK2ZW1SIcV9dNxoZrOQmM02/JHXNnIwYO24o3k9C1Rm3CnLZlEe4zG9v0nfC1twdKKCUwxsUg6OY+TJ+4CfeFODVp3Xc2NYq5w23XYUhdzdKydk+M6P0RapRzhK2FEik1TRIQ/u86DB79a6r9mMlGnc1yU9F9WR9UeKt9YSRuzKqJg6eF2Qxkuc5mmd5YvKQ7alhF4Z+V/TBuP9XuJKQw8JlN1n0NDZlYOMTeml504nVpWnDrE7LSqtUaFbt1h3dFKyRoWEtY7nuzdOaCxNmY0cFOWCceuuQWuHrwT/tWa/FYaHR6pIQiSjSfshozen2IamVKwFIen3Z9nQHxsbnLbBl1Wu45WUteYdLEpXp9klUGfarvJcNJC3288IBsi4M+dQtufQKysmdaVuiCHh96wCqR+25NOyac6/TErJmfIam6cJw+pZW+aX9/u7V4rIZ776naCym8J2LVrD5oVr0M7C3liE+zvg76OA1ytWcm6GDQpNovuW1nyI8ds2kdVLKVA7IS8Gjkzf2SCSGFQfSt0cVOzNuedXvEJvE2LkvKRuoyyWyawRh1G9vGjMJGP+6ErnwfE9ZNRcvSZoi6sQr9R+xBmi2Q5cxja8zaOwoN7RLxwmcuhs84g5CsNBDOcWt0TpPtGDrtA5TIbWbTvjN++KkZSguzGYnPq0xnIWc2C1pSNtKQSWZTYYyC785xGLn+Phf8KVB/7FpM/4Qrj76Fddy+sTPNvpH1zGPLGXswrpE9Ernvb+Hw6TjxOis7Zs5bowOfoO3u1ahTMo8zm6qmGL1kGBpZv8CZ+eOw4l+dsIAQUpBEX2eTBWqUlS0c7u7u8Pb2FuaKMyNe/r0WW1igyegv4sTtIP72uURqlgc/IhksnaqhXmXHPGvJne+MBuhSZ8a0QsY0QQ9NqnKNzoC87mCHpDAGXcH6jSzQZAz4++QtBLEZiRRyGV+YKzILJ3jV84STGLv7ZHQXsGBgZ3ze9XsKNAkpRKIPNotDx+Ji9d+pAhCDUP/gfAiajuO3836IjAesq3TEmOW78PuJo/ht60rMHdcNDRzyIFrIL2EHsWjMGIwRpqn77nJbCYgP/hvrUpWPn78XD02PIPkgNiwAr/Ihmj/12zk8iOAup6wrof3opdh5/ASO7t2KVfPGo8f7JbnLI0IIyTrRB5tiR32c/rf9u2wwPvt8GH7+7QKuP36FmEQF7FyroF6r/pi1ZQMmNLYQ1iSFiTUQWrlyZSbTTPR7r5gcUq+vxLefd8LQhb/C5/pjBEUnQmHrisp1P0bfGZvxy0RvWAmrEkJIZvgjo+j7SxQx6uO0GDNTwiortx9jfHF45VSM7N8VHVu3RMfe83E+MA4SVVk06NQGDsJqpPDkfwOhgiSH0kop/P0uMbh7dDWmjeyPbp+2RsuOvTD37DMYJCqUqf852lG/8ISQLOKDTT8/Pxw/fpwvIITk0tPXiGFBh8odH/RpjuzeDY8JfoCQWNO90bypE0py69SKsclVAzKeZmDbraLc1v8ZXkfzOybKvt8LLUtme8fEg9caU3WSPKoTSgj5b0jObIq1j02xZ2VZvUex1jll2Rxx7Tc18N3qfTh8+LAwTUMzFzlXbokq3Tckl++c2yl32cSQHTh2I5Q7KStQuvkk7DxyRHju4zh14Gd0Tn7yTlh0+CzOnjqOI8nv6ShOHFuHLyqpAGMUHl86/UZfhkVT7J+rMf7bb/FdHvax2XzqJCzY/qNp+r4W7NnRytoTXX4Ryrb3R7tiUsug6tBV2Ju8DxzGTx+58o3FLCp9hbVJ5bvm4ctcZRNDsevIdb7HA4Xrh5iw40jyfnf81AEs6Zry5B0XHMLZs6dw/EjKezp64jg2dKkMNYyIenIZp7PT2LywOA3Cmt+539jZA1jUyUYoJIQUNNEnTQIDA3HlyhVhTnzE3Mfpw4cPRZYRl0OltuAblSVNSr6nagnMUpWbq5S5/GHocXTaeKw44YuX0XruzG4uPLcc8UYzlEjqYb2MDeR6LeKkSpgLr21hwQWZuliEBfyLI4uHY2zavmtyTWWn5raCOJipkrYbN5krTN+JVJFmW5nl4ZD2hclMqU75rGwSOveXmKUqN1dz+6tp/ZwynJiOccuO487LKG4vTdmW8ngj5LZJkbsrbOV6aOOkUJoLr81NKugQG/YU144uxcgx297qjilXrEpBkR87Zjl7WPI7TiReXqIO3QkpLHw/m25ubnw3NlR3sOBRH6ck25L62ZTHQasxpOqkPQjnhn+DRRl2nqmA++T/oXszJxgebMEvg6agOA27XW7EWixt7izMcQc3uQrmXHQmxn42xSmpn00zxGk1aTppf+UzBv0X3BPm3iZtsA79Z7REKcMjnBneAn/6CQsEnef9hl6eKfVMpdwFnJq70si0n83uS3GsXzWoIq5icZ8xOBQllBNCChR/zWdra8uP0U0IERGJGdRC1sk0qaHKIPMltauHqqMPoX1jJ8igw6ub+4tVoMnIVGmzgyzQJIUh7Z0CNqkz2jHlJeHYbgm+HN0MpbhVdC+uwu+NQJNRpM5ys+fLYkq7kqMl301TYuRLXKFAk5BCI/oRhFiQ7OjoCF9fX6FEXMS87Wlc9yKu4Xr0n/gBHNRqKJLrBcQj4vYO/DpqCoKoEwpSKFrg403LULOUCuqUHRPxEb7wmfYZ/ryRheGhsqjxlJ348UMnRF9djD5jDoHiTUIKR8ovXaRYoMkCHlLwaFz3Ik6mgNJcDXm8FrHRoXjh+wfOzPkcq76jQJMUJhlkSjXU8gRoY2MQ9uw+ru2dhLU92uRpoMm4Odhwr5aIyJdXKNAkpBCJPtgUe8BDfZySfPNnL6xo4Y4Zn3hiYcc6WD+0B/48eZMfZpOQwnMSx7uWw/SPPDC/fTUs790Kh1dsQ0ied2zhDiuZDrGxwXjxgI1vRQgpLHywSQFP4aE+TgkhJD/4Y/WQz9G+fTdMPEJ5TUIKEx9sBgcH4+7du3wBKVhi7uOUEEIIISQzfLDJxuYWawMbUngoI04IIYSQzIi+zmZERAQfLIsV6+PU29tbmBMXf39/6puVEEIIIe/EB5s2NjZ80CNGAQEBog54xNzHKbv9L+ZAnxBCCCH5jw82XV1dUbduXb6AEEIIIYSQvMIHm2LuPoi9d3Nzc2GOFCQXF5dicJGihn2ryWjavzfsqNtQQgghJM+Jvs6mh4cHWrduLcyRgsSqAIi1+kWyluvRdXQ/fNhtKrpP7wmVUEwIIYSQvCH6YJM6dS88NIIQIYQQQjIj+mBT7KiP00J2qj92LtiA8zumYvuUrdAJxYQQQgjJG3ywKfbug8SM+jgtbFqEnvgJF9ZvRjh1G0oIIYTkOT7YFHv3QaRwiLMKQDO02OyHKWf935oG/PCesE4hUDbGhM3HcOb0MWwYVQsKoZgQQggRO9HfRhf7KDZi7uOUZcTZhYq4GBCn1SA2NmXSxRmFZYWoZlNUdVZBIlXBrXoLOAnFhBBCiNhJypYta2QNPdgkxjG6xfzeGS8vL3h6emLv3r1CCSloNRb54tNa5gg6/RnWzromlAKqT8di0cfuwlxGjAi5tApTttxD3f7T0be2rVCekQT4HRqGn38XZpOVQZc5s9GtggHXdk/E9N9eIlFYQgghhIgZn9kUc/dBLLMp1kCToRbdRZfRoENsbGwmUwy0hnh+/XiDNp3lb0+6dJPxz7B7fA907NwXUynQJIQQUozwmc2aNWuiYsWKlF0rBGLe9qwzfTaJvXFZRplNQgghhOSe6OtssvqO3t7ewhwpSO7u7rTtCSGEEPJOog822Sg2Dg4OwhwpSFQFgBBCCCGZEX2wKXasDp+Y65wSQgghhLwLH2yKvfsgMXv48CGOHz8uzJH/rpb46ddTOHv2LLaMLSuUEUIIIeLHB5t+fn4U8JD/KBeolEUhwe8Aa0sZ938UQp5Em4oIIYSQYiA5synWW7mUlS08xWLbK9vAxZmN1xONcL8gU1lhqF8O9nLu/8QIBF4KN5URQgghxYDo62wGBwfj7t27wpz4sE7dO3XqJMyJCxvTXbzdZalhUet7tFr+ParZcj+D6AA88nkpLCsEpWxgwRKb0SF4FGUqIoQQQooDPtgUc/dBrI9HFvSIFbXoLlhVZ13BqKN+mHz2LkYtGoEGFawgNYTg5u6RuBYsrFQIlLbmUEqAxMiXuBopFBJCCCHFAB9sWlhYUPdB5D9BYqaCuVqGOI0GUcHPcM9nPbb1a4QDOx6gMEdIr1naDuwuenTII1BikxBCSHHCB5tizq7Z2NjwmVlS8NjIR2Ib5vT2mGr4qXl5zGnnhcVfNcGv02bgcaBBWFp47BQSaGNjEfzsCiixSQghpDgRfZ1NV1dX1K1bV5gjBYllxNlwlST3Tkztjo7t22PgkudCCSGEEFI8iD7YFHudR2pNTwghhJDijA82KeApPP7+/vDx8RHmCCGEEEKKFz7YFHv3QWLG+jdlLerF6MaNGyLu+ogQQgghBYEPNsXefRAhhBBCCCmaRF9nMyIiQrSZQcbFxYUaOBFCCCGk2OKDTTF3HxQQECDqOo+2trYi2/Y2aD1jGw4fPozDB/dg8+Kx6FieDfdICCGEEPI2Ptik7oMKj/ha0xsQCwXf7ZGFlT3K1PgEQ+fPxlcuwmJCCCGEkFT4YFPM3Qex9059PRYkLS5M+hLNmzdHq0E7cDcGkNl5onnHcsJyQgghhJAUoq+z6eHhIbpRbIqLuAd/4kW0MEMIIYQQkg7RB5vUqXshKuuNsnbc//HhCLjxxFRGCCGEEJKK6INNsWOt6VkjJzEq2+Y9lFFxsWboffzvL6GQEEIIISQVPtiMjY3lOxcnBe/Fixe4cuWKMCcmTmji5Qwu1oTuxS1cMBUSQgghhKTBB5sPHz7E8ePH+QJCskaHcI0eRu4vhdN71P0RIYQQQtIl+tvoYh/XnbWkd3BwEObEJBInlm7GucfhMDo1xvfrDuPQzl/w8/cfCMsJIYQQQgCZjY3NVOFvUWJ1Hh8/fizaoJO1pmd9nIpxbHpj9BM8i7eDk5UZpGo7ONiXgKX2DnaevCesQQghhJD/Oj6z6eXlhU6dOvEFYsOCTDHXNxVva3oZPEeswarRX6BRJRWeH5qNgV0+QYdR+4XlhBBCCCFCsCn27oNIYXBA7XIOYDU1Y+8dwA8bz8HvtcG0iBBCCCFEIPo6m2xccW9vb2GOFJwQ3HoVZWog5FAB75kKCSGEEELSEH2wycboFmcDG7FLwJ391/Esngs2HaugcSWhmBBCCCEkFdEHm2KvAiDmPk4T7p/G4xDuD6UzKr9PAT8hhBBC3sYHm2LvPkjMRN3HqdoBaj7Wl8GqZBm+iBBCCCEkNT7Y9Pf3h4+PD19AyLvJUH3UEvyyag02bRyJ+vZcUXwoHvx1zbSYEEIIISQVPthkt3FDQtj9UPGhrGxBc0ANt3Jwr+yBsvYqQBeEqztmYz6NjU4IIYSQdEjKli3LGhSLFmsc5OjoCF9fX6FEXFgfp56enti7d69QIgJmjqhU1QWq2EDc83sN6vCIEEIIIRnhM5suLi78KDZixDKyYg00GVE2cIoLxoPr13GTAk1CCCGEZIIPNm1tbfn+KgkhhBBCCMlLfLAp5u6DbGxsKFAmhBBCCCmi+GBTzFxdXUVbBYAQQgghpLgTfbAp9k7dqTU9IYQQQoozPtikgKfwUB+nhBBCCCnO+GAzIiICAQEBfAEpWGLu45QQQgghJDOi72ezZs2aqFixorj6qSSFzAndl65Dv2qWwnyKmGvL0GHUfmHuv6Y3lv/eG14KYTZZJP5d0hOjD8YI84QQQkjWib7OZmxsLJ8dFCsx93HKMyuHNt8MwZd13g7cij4jEvSx/D6UNGl0mfQcKrGFy+cz4d2zA9RCUfGhhy7VtoiN1SFeNJeiNdByqz+mnL2Lzp2Fovwkc4b7wF/Rd+8DTDzLXtcfk0/dQc+h9YQV3mBWBdV+OIlvD/lhctL6v19F+7bCckIIKcb4zKa5uTnYRLdzC54oRxBKVhr9V61Bt8pqGLUPsW/EAKx4ICzKFRms3TxR3k6K2MB78Hud113HJ2U2FXh2bAJ6L8j6uO5mvY9jZG9PKBGPwN+7Y8O8y8KSIkpZEu99/gE+aFwDlV0sIZdo8Wj/SizY/EpY4V2SMp1iyGyyYPMQ3nfV4u4qT+zZIxTnB5kH6izcizY1rCHhLljitFoYEtkCHR5vrI39+/i1Upi3RctVP+P9Mgru+iYBeo2e23s48a/w74xmOHeVX4sQQootPrPp7u4Ob29vvoAULLG3pk8ikUrzME3ugPajZmHRonmY1LuqUFbcmcHWtRzKly8LB7VEKMulMk3x/YbRGNClEaq6skBTKCe5Iq83CfWqc4FmYiTubumA+W29sLA9m9IJNDlWXb5DLS7QNOoDcfmnOpjLr8tNn1GgSQj5b+Djg+IS8JCC9hwbp/yEtb/txepJw7EsT7KaRVvclq7Yunw7fDaOxI48zWqWwyd9R2D06G/RuY6FUJZLMjkXYOoR5n8HPpt24ORDrbCA5Jw5SrepCkcucDc8PcNt11umLGWGyqNaAzeokYiom5tx5nyEUE4IIf8doq+zyW5Dd+rUSZgjBS3h9SXsWrkCv179jzQeMUbgxb6J8Nl6CEU+dHv+F9YMnIaJwzdj14EXMIi6KWBRYQs7axX3fzzCHp5EsKnwHSxhacHW1yPoxtZMAlNCCCmeRB9sUqfuBY3VdzyEs2fPppl+3zwa7wlrpObUfSkOccsP/9wTHwxahO1HTvHrnzl1FHtWjUSTVO2KktY9e3an0FJcgTJtFqZ5nbO/b8boN17IrFwHjJq/jguojuLEmVTrnj2DI2uHoZqwXo4oeuHTfaYGHWmnR+j+jbBOURWvQ0xMgjBTyGr1xcyVK7Eyk2nBiE+4PSyX7Eag47Y7mHCG+57OPMK4g5fwxYCPoBQW8yquwQD2PR45hJpCEc9hBL48yL7fzBsaGROyV5c4MS5rlyeK+qOw4cgZnDm2CePfNzcVEkKIiIk+2BQ78fVxmgiDTpPSYlkbh6wkzBQu3hjQpiYcZTrEavRIlKlhX7ktxi8agkrCOokGHTTC82rj2LO+3Vo8VqOFPlV8Lqs4EEuWfo+2dSrAkWWcdKnX18AQZ0CssG7O6BGnYZ83ZdIXkfhNVOIN0Kb+HjOYNLo4bg/LDSlsPuiOms5KJHDfm0aXCIVVKXh1WY1vZvaFXFirKPNqUh2u5hJIVGVQ7UN3oZQQQsSLb40u5hbR1M9m4WLZyHX9qkHx7Bgm9F6AN9t1Jy23NOrx9PQsDJ39P8RABrfei7Gsd1VYGgJwZPTXWHRbeAAv663FK4z4Bavau0MaeRNbR43F5sdZyTblvDU6YAPvDTfgXS4Bj3ZWwPZ1QnEOeA9ZhC5V2S3Wd4nCrR0zsOqP3FZTcETb+UPQzgPFvDU6d9EScQsnx3yJvx+xTKIVyo44jC7cPqLWP8G5oc3wv0dcMctsrm2FUpqbONiuA27wz8Fhmc0N36OKVapW7SUG49MVw1BByMJLFWqozcBdCGmhS3VfXHf7Z6yYwO0Q5Raj19KPUVIoN1OZQyFL3WqdiUfw6W+xdckfwnwqzp/hpzm94Gm8g33TfsSOJ3R1QwgRNz6z6evrS8EayVfGGF8cXsgCTSYBAb9fgj8/I4U0D2pCSFQlUL5eLZQRUXef8WmytkkZUxaUpC5nmVyqbJl1Bjw7+4MQaDLReLpqHnxZ5UplKZSqbSrNFqkKCnNzWFiYJrUZa9YvgUyZUsaXq4QLB5kaqlTlChkrlMBMnXZ9leqt3vNNXu7H5N6f4Ys+kyjQJIQUC6K/jS72cd1Z/6YODg7CXPEVF/ESWUo6ZtOjHb/jarCOCyRKo8nAOdh88BSOH9yJ9YumYuDH5ZHB6bxI+HP9ZIwZM0aY1uJyMEuTRePe/mmpyqfhl8u5qwjw35IAzatbwt8C3XMYcnOYCPkZv3Z0x/TmbGqEwzfZVVI8Xp7oK5SZpgUjlpnWfzgQa5PLO+BiICtkmdKUdac3r4h1c8/yqxNCSHEn+mDT398fPj4+wpz4UB+nufTqV0z4qiN6T9uMk1fuITDcAKmlE8rXaoou41Zh+/yv4CKsSgpRQTYQepNVDViw4Z6MiUikRCEhhBQ4PthkdR5bt27NF4gNG6pSzCMfUR+n7yKFwtxK+Ptd4vDcZzPmjP0WPb9oi1affIWxe+4iRmIG++qt8FWumqOTPFFgDYTepm72OdxKcH/on+P5/0xlGVLYQUE/SUIIyVN8sGlhYcHfziWkaIjCsygd978cDjU/Rc/y2bwZHheKgIAY6PmZvKkTSnLp9jbMSK4akPE0ZdUZvBYeknsK2H2+HT0GvQcbLoQNv7EbV5OePDEeiawqrKocqvSuYCqTOaPi1y1QOrM2W4QQQrJF9LfRXVxcULduXWGO5LeSnedh1+HDOCxM67tVBhvvxsylBaYnle9bjWG5yiZq8ef2i/A3cOd/u1r4et1hHBWe++iJ49g4MuXJPSdu5/vTPHE05T0dOf47do+uB3sYoX95E2ey09i80DzArp++w7ffjs+DlueC2p9i4vYfsYCfvsVH5VgUpYJb68FC2Y+YNMLDtG6xoULFPr4YddgXY07cx7ChH8BZZUTMw4M4PPWXlE7VA9bC7wm3g0mtULnXSYzj1h995A90qR6CJy/ZCtzz9PoH3Ud05FcvUE0mY8dJ1k/sdkz6r4zWSggp1kQfbNra2sLNzU2YI/lNqlDB3MKCz4bzk9oMfNtcmTKlzFwNZS6ziQl3l2LcjF/xz9MwaOPlUAvPreLCBal5UoMqK7gqEqHRJ8JMLbw2N6nl8YiNeom75zdj0rCFb3XHlCvSclAU5VZHqckVyduNb/3MD44ugVzFWkML20rJN5UuBuIRp9MhzpjU6lsNRaIG4c9u4+LqrlgxYAT8Taluk4QbuDBxJi49joAhUQaluRKS8Fs4PWsmwvj7+NzzWJSEc9my/OoFqoQNLFmHoDFhCAgzFRFCiJjx/WyKua9KsfezKeY+TsUrqZ9NCyToNWn6Soy9uRpfTTwqzKWjxE/osaMnystf45/J9XD8olBeLHyFBXu7o3JyMM2CMBXkEjH0s1l81Bq1CXPaloXZi1MY1mM2fIVyQggRKz6zKfbug8SM+jgtTKyvxJSMKJvMM+r7UGINm8ZT8emyL8GqkBpD7+F+sQo0GSVUqbaFhQULNIVFpMCUtLPgRzqKCfWHeJs+EkJICj6zaWNjw9+OFtewiSY0ghDJP1ZotPwyGpVXckFoyu1mo+Y5Li9uhZOnqf9LktcU6LzoNwyuZYEXp4ahx2zKaxJCxI/PbEZGRooy0GQoK0vyD8t8qrhA0whdbCwiXz7B7d/n45cejSnQJPnEC2VLsOx6DEL9Ka9JCCke+Mym8LcosdbobLpy5YpQIi4sK+vh4YHjx48LJYSQ/66mmLh5JBqWCIHPmP5YcE8oJoQQEeODTTZcoqOjI19/kBQsqgZACCGEkOKMv43OAk3WIpoQQgghhJC8xAebYh4ykY18xDKzhBBCCCGk6BF9p+7u7u7w9vYW5sTnxo0bdAudEEIIIcWW6INNMWdlCSGEEEKKOz7YpO6DCCGEEEJIfuCDzdjYWISEUJ9uBcZzBNYeOIzDhw9j/47V+Onr2rCikVoIIYQQUgzxwSbr0N3Hx4cvIAUgIgEyYUhAm1KV8EHPGVg8vAY/RB0hhBBCSHEi+jqboqwC8HIp+rVsjubNP8O8i6+RCBXKNfgC9TIYlpsQQgghRKz4YFPM3QexjujF25o7Er8/CuWCTUIIIYSQ4okPNsXefZCYtatcCjLu/5iXd3DDYCojhBBCCCku+GCTug8qLO3QxMMGEmjgf+UI9y8hhBBCSPEi+jqbbFzx1q1b/7+9+/vN+qrjAP5ZgI61jJasA1qgD3TAbJV1MZ1kuoWEuCz1YiYy9cILb9R4ZYzGGDXG7UIvlCxmU7cIWaYBsrDUjDQbN8ZJMrbEMe0gtMwqiFvnKB1pF/ojK1j7PX0y/4A9T/ieJ69X03DO51w13Lxzvud8TnWWmfv7o7K2uIY+ERdemFmuAQA0kOzDZnGjuzhzmqXJqzF3vRi0Rfc+7Y8AgMaTfdjM2uiv4jfHzsaluTXR+5X98YcXn4vfP/WT+GJLdR0AIHMpbHpB6EaZj9cOPxsvvPpGvHnhciw03Rabd1ZisyO0AECDuKmrq2uxOs5SX19fOreZZfuj1V+Ox45+I+5e89947+xQHDowGH88Mx4zWf+PAAD8X/af0bPelb2nJzqbi4Oab8UrP348jp0WNAGAxpJ92BwfH49Tp05VZ5l57a24cq0YtEXHfbekEgBAI0lhM+f2QdPT0+lt9yzNH46Tb87G4lLY3Hrv7ri5WgYAaBQpbGbdPihr8zE48nYU3Y/aK5+J7uIpIQCABpL9Z/TiTffe3t7qLD8bW26O1F6zuTXuaEolAICGkX3YXL9+ffT09FRnmVj91fjZ00/FkwePxOMDleW30S++Hn+aW14GAGgU2YfNLN91v2dbdHftjDu7N8aaFddjeuzFeOyRo95GBwAaTuqzWXyGLnYHc+xVmWufzdatd8W2tmtxeWw0xvU7AgAaVNrZzLp9UKam/3U6hodHBE0AoKGlsJlz+yBPbQIAlFf2ZzZnZmZicnKyOgMAoEzSmc2ifVBxq3tkZKRaBgCAjy7tbGbZPggAgNJLYTPL9kEAAJRe9mc2AQAor0zD5ob40i+ejaGhoRg6djSe3v/teHCz3VkAgLLJNGzOLf00RUtLS7Tc2h5bP/lQfHf/I/FQe3UZAIBSSGFzamoqs/ZB78fQ974Qe/fujc995/n452zEyvW74oGBzuo6AABlkMJm0dD9xIkTqZCb+eG/xrseFQcAKKX8Lwjt+lRsXrv07wfvxYU33lmuAQBQCilsFq2PmpubUyE3ux7YFR1NS1nz0ki8dLpaBACgFFLY3LFjRwwMDKRCXu6IT++8PZayZlx9+1T8bbkIAEBJfLizmaerMTW3EItLo1s679X+CACgZDI/s3kpBp84Eq9cnI4VWz4b339mKJ4/fDB+/s27qusAANxI2V8QunZ+KI4c+3O8fvYf8c7Miljb0R3dW26rrgIAcCNlHjZXxu4fHohffuvzsXvbihh77tH42sMPxsM/eqm6DgDAjZTC5sLCQprkpxJ3d62L4qTm1JlD8eihl+P8lVz/FgCAxpPC5tjYWBw/fjwV8nIxzl2eXb4gdHtP7FwuAgBQEh/ubM7O5vgMz7U4efxMvHt9KWx2fCLu66qWAQAohfwvCP3lZFycXhq0dMbH+1uXiwAAlEIKm5VKJfbs2ZMK2Vm7LlavKAar4taNG1IJAIBySGGzra0t2tvbUyEPK+P+H/w6Dj752/jdga9HX7Gh+cFEnHv578vLAACUQqaf0SvRW6lE953bY8u6plicHY9Xn/lpPOFtdACAUrmpq6trsa+vL7Zv3x6Dg4PVcgZWd0TPxzbEyvf/HefOXwkNjwAAyiffC0Lz/4nR4eE4I2gCAJRWCpv5NnUHAKDMUticmJiI0dHRVAAAgFpJZzarYwAAqKl8z2wCAFB6KWy2tramxu4AAFBLKWxu2rQp+vv7UwEAAGolhc1Vq1alCQAA1JIzmwAA1I2wCQBA3QibAADUTQqbMzMzMTs7mwoAAFArmroDAFA3PqMDAFA3wiYAAHWTwmZvb2/s27cvFQAAoFZS2NTUHQCAevAZHQCAuhE2AQCoG2ETAIC6SWFzYWEhTQAAoJZSU/fm5uYoficnJ6tlAAD46NLOZvFUpaAJAECtObMJAEDdpLDZ2dkZ/f39qQAAALWSwmZbW1tUKpVUAACAWklh0wtCAADUgzObAADUjbAJAECdRPwPpOsiHGtfNYQAAAAASUVORK5CYII=;" vertex="1" parent="1">
          <mxGeometry x="410" y="130" width="417" height="254.45" as="geometry" />
        </mxCell>
        <mxCell id="2FlYlS-IkJK94sjPESsp-2" value="Начало" style="strokeWidth=2;html=1;shape=mxgraph.flowchart.terminator;whiteSpace=wrap;" vertex="1" parent="1">
          <mxGeometry x="190" y="30" width="100" height="60" as="geometry" />
        </mxCell>
        <mxCell id="2FlYlS-IkJK94sjPESsp-3" value="Конец" style="strokeWidth=2;html=1;shape=mxgraph.flowchart.terminator;whiteSpace=wrap;" vertex="1" parent="1">
          <mxGeometry x="190" y="980" width="100" height="60" as="geometry" />
        </mxCell>
        <mxCell id="2FlYlS-IkJK94sjPESsp-4" value="int i = 0; i &amp;lt; length; i++" style="strokeWidth=2;html=1;shape=mxgraph.flowchart.loop_limit;whiteSpace=wrap;" vertex="1" parent="1">
          <mxGeometry x="190" y="110" width="100" height="60" as="geometry" />
        </mxCell>
        <mxCell id="2FlYlS-IkJK94sjPESsp-5" value="int buff = ints[i]" style="rounded=0;whiteSpace=wrap;html=1;" vertex="1" parent="1">
          <mxGeometry x="180" y="180" width="120" height="60" as="geometry" />
        </mxCell>
        <mxCell id="2FlYlS-IkJK94sjPESsp-7" value="int j = i - 1" style="rounded=0;whiteSpace=wrap;html=1;" vertex="1" parent="1">
          <mxGeometry x="180" y="250" width="120" height="60" as="geometry" />
        </mxCell>
        <mxCell id="2FlYlS-IkJK94sjPESsp-14" style="edgeStyle=orthogonalEdgeStyle;rounded=0;orthogonalLoop=1;jettySize=auto;html=1;" edge="1" parent="1" source="2FlYlS-IkJK94sjPESsp-10">
          <mxGeometry relative="1" as="geometry">
            <mxPoint x="240" y="760" as="targetPoint" />
            <Array as="points">
              <mxPoint x="140" y="380" />
              <mxPoint x="140" y="760" />
              <mxPoint x="240" y="760" />
            </Array>
          </mxGeometry>
        </mxCell>
        <mxCell id="2FlYlS-IkJK94sjPESsp-10" value="j &amp;gt;= 0 &amp;amp;&amp;amp; buff&amp;nbsp; &amp;lt; ints[j]" style="strokeWidth=2;html=1;shape=mxgraph.flowchart.decision;whiteSpace=wrap;" vertex="1" parent="1">
          <mxGeometry x="190" y="330" width="100" height="100" as="geometry" />
        </mxCell>
        <mxCell id="2FlYlS-IkJK94sjPESsp-12" value="" style="endArrow=none;html=1;rounded=0;entryX=0.5;entryY=1;entryDx=0;entryDy=0;entryPerimeter=0;exitX=0.5;exitY=0;exitDx=0;exitDy=0;exitPerimeter=0;" edge="1" parent="1" source="2FlYlS-IkJK94sjPESsp-3" target="2FlYlS-IkJK94sjPESsp-11">
          <mxGeometry width="50" height="50" relative="1" as="geometry">
            <mxPoint x="240" y="785" as="sourcePoint" />
            <mxPoint x="240" y="90" as="targetPoint" />
          </mxGeometry>
        </mxCell>
        <mxCell id="2FlYlS-IkJK94sjPESsp-13" style="edgeStyle=orthogonalEdgeStyle;rounded=0;orthogonalLoop=1;jettySize=auto;html=1;exitX=1;exitY=0.5;exitDx=0;exitDy=0;exitPerimeter=0;" edge="1" parent="1" source="2FlYlS-IkJK94sjPESsp-11">
          <mxGeometry relative="1" as="geometry">
            <mxPoint x="240" y="470" as="targetPoint" />
            <Array as="points">
              <mxPoint x="310" y="700" />
              <mxPoint x="310" y="470" />
            </Array>
          </mxGeometry>
        </mxCell>
        <mxCell id="2FlYlS-IkJK94sjPESsp-11" value="j &amp;gt;= 0 &amp;amp;&amp;amp; buff&amp;nbsp; &amp;lt; ints[j]" style="strokeWidth=2;html=1;shape=mxgraph.flowchart.decision;whiteSpace=wrap;" vertex="1" parent="1">
          <mxGeometry x="190" y="650" width="100" height="100" as="geometry" />
        </mxCell>
        <mxCell id="2FlYlS-IkJK94sjPESsp-8" value="" style="strokeWidth=2;html=1;shape=mxgraph.flowchart.loop_limit;whiteSpace=wrap;rotation=-180;" vertex="1" parent="1">
          <mxGeometry x="190" y="800" width="100" height="60" as="geometry" />
        </mxCell>
        <mxCell id="2FlYlS-IkJK94sjPESsp-15" value="ints[j + 1] = ints[j]" style="rounded=0;whiteSpace=wrap;html=1;" vertex="1" parent="1">
          <mxGeometry x="180" y="490" width="120" height="60" as="geometry" />
        </mxCell>
        <mxCell id="2FlYlS-IkJK94sjPESsp-17" value="" style="endArrow=none;html=1;rounded=0;entryX=0.5;entryY=1;entryDx=0;entryDy=0;entryPerimeter=0;exitX=0.5;exitY=0;exitDx=0;exitDy=0;exitPerimeter=0;" edge="1" parent="1" source="2FlYlS-IkJK94sjPESsp-11" target="2FlYlS-IkJK94sjPESsp-16">
          <mxGeometry width="50" height="50" relative="1" as="geometry">
            <mxPoint x="240" y="650" as="sourcePoint" />
            <mxPoint x="240" y="90" as="targetPoint" />
          </mxGeometry>
        </mxCell>
        <mxCell id="2FlYlS-IkJK94sjPESsp-16" value="j --" style="rounded=0;whiteSpace=wrap;html=1;" vertex="1" parent="1">
          <mxGeometry x="180" y="570" width="120" height="60" as="geometry" />
        </mxCell>
        <mxCell id="2FlYlS-IkJK94sjPESsp-18" value="ints[j + 1] = buff" style="rounded=0;whiteSpace=wrap;html=1;" vertex="1" parent="1">
          <mxGeometry x="180" y="890" width="120" height="60" as="geometry" />
        </mxCell>
      </root>
    </mxGraphModel>
  </diagram>
</mxfile>
